<?xml version="1.0" encoding="utf-8"?>
<!-- Generator: Adobe Illustrator 22.0.0, SVG Export Plug-In . SVG Version: 6.00 Build 0)  -->
<svg version="1.1" id="Camada_1" xmlns="http://www.w3.org/2000/svg" xmlns:xlink="http://www.w3.org/1999/xlink" x="0px" y="0px"
	 viewBox="0 0 1073.9 1065.6" style="enable-background:new 0 0 1073.9 1065.6;" xml:space="preserve">
<style type="text/css">
	.st0{fill:#FAFAFA;}
	.st1{fill:none;stroke:#000000;stroke-width:26;stroke-miterlimit:10;}
</style>
<g id="SAIR">
	<path d="M535.7,952.8H157.4c-23.2,0-42-18.8-42-42l0,0V154.3c0-23.2,18.8-42,42-42h378.3c23.2,0,42-18.8,42-42s-18.8-42-42-42
		H157.4c-69.6,0.1-126,56.5-126.1,126.1v756.5c0.1,69.6,56.5,126,126.1,126.1h378.3c23.2,0,42-18.8,42-42
		C577.8,971.7,558.9,952.8,535.7,952.8z"/>
	<path d="M1030.9,502.6L775.4,250.4c-16.5-16.3-43.1-16.1-59.4,0.4c-16.3,16.5-16.1,43.1,0.4,59.4L899,490.5H409.6
		c-23.2,0-42,18.8-42,42s18.8,42,42,42H899L716.4,754.8c-16.5,16.3-16.7,42.9-0.4,59.4s42.9,16.7,59.4,0.4l255.5-252.2
		c16.5-16.3,16.7-42.9,0.5-59.4C1031.2,502.9,1031.1,502.8,1030.9,502.6L1030.9,502.6z"/>
</g>
<g id="DOWNLOAD">
	<path d="M957.7,534.2v378.3c0,23.2-18.8,42-42,42l0,0H159.1c-23.2,0-42-18.8-42-42V534.2c0-23.2-18.8-42-42-42s-42,18.8-42,42
			v378.3c0.1,69.6,56.5,126,126.1,126.1h756.5c69.6-0.1,126-56.5,126.1-126.1V534.2c0-23.2-18.8-42-42-42
			C976.5,492.2,957.7,511,957.7,534.2z"/>
	<path d="M567.3,729.8l252.2-255.5c16.3-16.5,16.1-43.1-0.4-59.4s-43.1-16.1-59.4,0.4L579.4,597.9V108.5c0-23.2-18.8-42-42-42
		s-42,18.8-42,42v489.3L315.1,415.3c-16.3-16.5-42.9-16.7-59.4-0.4s-16.7,42.9-0.4,59.4l252.2,255.5c16.3,16.5,42.9,16.7,59.4,0.5
		C567,730.1,567.2,729.9,567.3,729.8L567.3,729.8z"/>
</g>
<path id="PERFIL" d="M808.1,695.5l-160.9-60.7v-33.3c44.3-22.7,77.9-61.5,92-108.1c53.8-0.3,97.4-41.5,97.4-92.2
	c0-30.4-15.8-57.5-40-74.3v-69.2C796.5,128.9,685.2,24,548.3,24H530c-20,0-40,2.3-59.5,6.8L415,50.7
	c-72.7,35.9-124.2,104.7-132.2,185.2l-1.1,52.1v38.6c-4.5,3.1-8.8,6.6-12.8,10.4c0,0-21.8,14.1-26.8,52.1c-0.6,4-0.9,8-0.9,12
	c0,50.9,43.9,92.2,97.9,92.2h0.7c14,46.6,47.6,85.5,92,108.1v33.1l-165.1,60.8c-10.9,3.7-21.4,8.4-31.3,14.3
	c-19.4,9.8-59.2,51.7-59.2,51.7c-23.4,30.3-40.9,71.1-40.9,123.9v129.6c0,14.4,12.4,26.1,27.7,26.1h104.7
	c15.3,0,27.7-11.7,27.7-26.1s-12.4-26-27.7-26h-77V885.4c0-108.4,90.6-139.5,94.3-140.8c0.4-0.1,0.9-0.3,1.3-0.4L438,688.3
	c0.7,0.8,1.4,1.6,2.2,2.3l79.6,72.9c5.3,4.8,12.2,7.4,19.3,7.4h0.4c7.3-0.1,14.3-3,19.5-8l77.7-75.9L788,744.1
	c0.4,0.2,0.9,0.3,1.3,0.5c3.8,1.3,94.5,32.4,94.5,140.8v103.5H356.4c-15.3,0-27.7,11.7-27.7,26c0,14.4,12.4,26.1,27.7,26.1h555.2
	c15.3,0,27.7-11.9,27.7-26.3V885.4C939.3,768.7,853.9,710.3,808.1,695.5z M746.3,361.8c19.8,3.4,34.9,19.8,34.9,39.4
	s-15.1,36-34.9,39.4V361.8z M332.8,440.8c-20.4-3-36.1-19.5-36.1-39.6s15.7-36.6,36.1-39.5V440.8z M360.6,289.3h-0.1
	c-0.9,0-1.9,0.1-2.8,0.2l-0.9,0.1c-0.6,0.1-1.2,0.2-1.9,0.3c-0.4,0.1-0.8,0.2-1.2,0.3c-0.5,0.1-1,0.2-1.5,0.4
	c-0.4,0.1-0.9,0.3-1.3,0.5s-0.8,0.3-1.2,0.4s-1,0.4-1.5,0.6c-0.3,0.2-0.6,0.3-0.9,0.5c-0.5,0.2-1,0.5-1.5,0.8l-0.8,0.5
	c-0.5,0.3-0.9,0.6-1.3,0.9l-0.8,0.6c-0.4,0.3-0.8,0.6-1.1,1s-0.6,0.5-0.9,0.7s-0.6,0.7-1,1s-0.5,0.5-0.8,0.8s-0.5,0.7-0.8,1
	s-0.5,0.7-0.8,1c-0.1,0.2-0.3,0.4-0.4,0.6v-43.8c0-100,86.5-181.5,192.9-181.5h18.4c106.3,0,192.8,81.4,192.8,181.5v42.6
	c0-0.1-0.1-0.1-0.1-0.2c-0.2-0.3-0.5-0.6-0.8-1s-0.5-0.6-0.8-0.9s-0.6-0.7-1-1s-0.5-0.5-0.8-0.7s-0.8-0.6-1.2-1s-0.5-0.4-0.8-0.6
	c-0.5-0.3-0.9-0.6-1.3-0.9l-1-0.6c-0.4-0.3-0.8-0.5-1.3-0.7s-0.8-0.4-1.2-0.5s-0.8-0.4-1.2-0.5s-1-0.4-1.5-0.5s-0.7-0.3-1.1-0.4
	c-0.5-0.2-1.1-0.3-1.7-0.5c-0.2-0.1-0.5-0.1-0.8-0.2c-60.3-12.9-79.1-86.3-79.3-86.9c-2.4-10-10.8-17.7-21.5-19.8
	c-10.5-2.1-21.3,1.9-28,10.3C523.2,288.4,362.8,289.3,360.6,289.3L360.6,289.3z M591.8,655.8l-53.3,52.1l-51.2-47v-41
	c11.5,2,23.1,3,34.7,3.1h35c11.6,0,23.2-1,34.7-3.1L591.8,655.8z M557.1,570.8h-35c-73.8,0-133.9-56.5-133.9-126V340.1
	c48.3-3.9,149-19.5,220.7-82.1c14.7,27.3,40.2,60.1,82,76.3v110.5C690.9,514.4,630.8,570.9,557.1,570.8L557.1,570.8z"/>
<g id="MODULOS">
	<path d="M1046.3,125.6H239c-9.7,0-17.5,7.8-17.6,17.5l0,0v52.7h-52.6c-9.7,0-17.5,7.8-17.6,17.5l0,0V266H98.6
		c-9.7,0-17.5,7.8-17.5,17.5l0,0v52.7H28.4c-9.7,0-17.5,7.8-17.5,17.5v596.7c0,9.7,7.8,17.5,17.5,17.5h807.3
		c9.7,0,17.5-7.8,17.5-17.5l0,0v-52.7h52.7c9.7,0,17.5-7.8,17.5-17.5l0,0v-52.7h52.7c9.7,0,17.5-7.8,17.5-17.5l0,0v-52.7h52.6
		c9.7,0,17.5-7.8,17.6-17.5l0,0V143.2C1063.9,133.5,1056,125.6,1046.3,125.6L1046.3,125.6L1046.3,125.6z M818.1,932.9H45.9V511.7
		h772.2L818.1,932.9z M818.1,476.6H45.9V371.3h772.2L818.1,476.6z M888.3,862.7h-35.1v-509c0-9.7-7.8-17.5-17.5-17.5l0,0H116.1
		v-35.1h772.2V862.7z M958.5,792.5h-35.1v-509c0-9.7-7.8-17.5-17.5-17.5l0,0H186.3v-35.1h772.2V792.5z M1028.7,722.3h-35.1v-509
		c0-9.7-7.8-17.5-17.5-17.6l0,0H256.5v-35.1h772.2V722.3z"/>
	<rect x="81" y="406.4" width="35.1" height="35.1"/>
	<rect x="151.2" y="406.4" width="35.1" height="35.1"/>
	<rect x="221.4" y="406.4" width="35.1" height="35.1"/>
	<path d="M396.9,546.8c-96.8,0-175.5,78.7-175.5,175.5s78.7,175.5,175.5,175.5s175.5-78.7,175.5-175.5S493.7,546.8,396.9,546.8z
		 M396.9,862.7c-77.4,0-140.4-63-140.4-140.4s63-140.4,140.4-140.4s140.4,63,140.4,140.4S474.3,862.7,396.9,862.7z"/>
	<path d="M492.5,706.6l-140.4-70.2c-8.7-4.4-19.2-0.9-23.6,7.8c-1.2,2.5-1.9,5.2-1.9,7.9v140.4c0,9.7,7.9,17.6,17.6,17.6
		c2.7,0,5.4-0.6,7.8-1.8L492.5,738c8.7-4.3,12.2-14.9,7.9-23.6C498.7,711.1,495.9,708.3,492.5,706.6L492.5,706.6z M361.8,764.1
		v-83.6l83.6,41.8L361.8,764.1z"/>
</g>
<g id="INSTAGRAM">
	<path d="M834.4,35.6H259.8C144.1,35.6,50.3,130,50.3,245.7v574c0,115.7,93.8,210.1,209.5,210.1h574.6
		c115.7,0,209.5-94.4,209.5-210.1v-574C1043.9,129.9,950.1,35.6,834.4,35.6z M993.3,819.6c0,88.2-71.3,159.5-158.9,159.5H259.8
		c-87.6,0-158.9-71.3-158.9-159.5v-574c0-87.6,71.3-159.5,158.9-159.5h574.6c87.6,0,158.9,71.9,158.9,159.5L993.3,819.6z"/>
	<path d="M807.8,517.8c-7.5-132.9-115.7-239.9-248.7-245.9c-153.5-6.9-279.8,119.5-272.8,273c6.1,133,113.1,241.1,246.1,248.5
		c53.7,3.1,107-10.5,152.5-39.1c11.7-7.3,15.3-22.7,8-34.4c-1-1.6-2.2-3.1-3.5-4.5L689,715c-8.3-8.3-21.3-9.7-31.2-3.4
		c-33.9,21.1-73.1,32-113,31.6c-117-1.1-211.4-99.4-208.1-216.5c3.3-117.8,103.8-211.7,224-204.1c103.5,6.5,187.8,89,196.3,192.4
		c3.4,40.2-4.9,80.5-23.8,116.1c-5.3,9.8-3.6,21.8,4.2,29.7l0.4,0.4c9.7,9.8,25.5,9.8,35.3,0.1c1.7-1.7,3.2-3.7,4.3-5.8
		C800.1,613.2,810.6,565.6,807.8,517.8z"/>
	<circle cx="816.7" cy="229.5" r="67.4"/>
</g>
<g id="LOGIN">
	<path d="M537.3,36.5c-280.2,0-507.4,227.2-507.4,507.4C29.8,666.4,74.1,784.8,154.7,877c12.3,14.1,25.4,27.6,39.2,40.3
		c206.3,189.7,527.3,176.3,717-30c86.1-93.7,133.9-216.3,133.9-343.5C1044.8,263.7,817.6,36.5,537.3,36.5z M398.6,457.2
		c43.1-3.5,133-17.5,197.1-73.3c13.1,24.4,35.9,53.7,73.3,68.1v98.7c0,62-53.6,112.5-119.5,112.5h-31.3
		c-65.9,0-119.5-50.5-119.5-112.5v-93.5H398.6z M374,411.9h-0.1c-0.8,0-1.7,0-2.5,0.1l-0.8,0.1c-0.6,0.1-1.1,0.1-1.7,0.3
		c-0.4,0.1-0.7,0.2-1.1,0.3c-0.4,0.1-0.9,0.2-1.3,0.3c-0.4,0.1-0.8,0.2-1.2,0.4s-0.7,0.2-1.1,0.4c-0.4,0.2-0.9,0.4-1.3,0.6
		c-0.3,0.1-0.5,0.3-0.8,0.4c-0.5,0.2-0.9,0.5-1.3,0.7c-0.2,0.1-0.5,0.3-0.7,0.4c-0.4,0.3-0.8,0.5-1.2,0.8c-0.2,0.2-0.5,0.4-0.7,0.5
		c-0.4,0.3-0.7,0.6-1,0.9s-0.5,0.4-0.8,0.6s-0.6,0.6-0.8,0.9l-0.8,0.7c-0.2,0.3-0.5,0.6-0.7,0.9s-0.5,0.6-0.7,0.9s-0.2,0.4-0.4,0.6
		v-39.1c0-89.3,77.3-162,172.2-162h16.4c94.9,0,172.2,72.7,172.2,162v38l-0.1-0.1c-0.2-0.3-0.5-0.6-0.7-0.9s-0.5-0.5-0.7-0.8
		s-0.5-0.6-0.9-0.9s-0.5-0.4-0.7-0.7l-1-0.9l-0.7-0.6c-0.4-0.3-0.8-0.5-1.1-0.8c-0.3-0.2-0.6-0.4-0.9-0.5c-0.3-0.2-0.7-0.4-1.1-0.7
		l-1.1-0.5l-1-0.5c-0.4-0.2-0.9-0.4-1.3-0.5l-0.9-0.3l-1.5-0.4c-0.2-0.1-0.5-0.1-0.7-0.2c-53.8-11.6-70.6-77-70.8-77.6
		c-2.1-8.9-9.6-15.8-19.2-17.7c-9.4-1.9-19,1.6-25,9.1C519.1,411,375.9,411.9,374,411.9z M580.4,739.2l-47.6,46.5l-45.7-41.9V707
		c10.2,1.8,20.6,2.7,31,2.7h31.3c10.4,0,20.8-0.9,31-2.7V739.2z M871,859.8c-25.4-49.2-69.7-76.2-97.5-85.3l-143.7-54.2v-29.7
		c39.6-20.2,69.6-55,82.1-96.5c48-0.3,87-37,87-82.3c0-27.2-14.1-51.3-35.8-66.3v-61.8c0-115-99.5-208.6-221.6-208.6h-16.4
		c-17.9,0-35.7,2-53.2,6.1l-49.5,17.7c-64.9,32.1-110.9,93.5-118,165.4l-1,46.5v34.5c-4.1,2.8-7.9,5.9-11.4,9.3
		c0,0-19.5,12.5-23.9,46.5c-0.5,3.5-0.8,7.1-0.8,10.7c0,45.4,39.2,82.3,87.4,82.3h0.6c12.5,41.6,42.5,76.3,82.1,96.6v29.5L290,774.6
		c-9.7,3.3-19.1,7.6-28,12.8c-17.3,8.7-52.8,46.2-52.8,46.2c-4.7,6-8.9,12.3-12.7,18.9c-2-2.2-4-4.5-6-6.8
		c-166.9-191.4-147-481.9,44.4-648.8s481.9-147,648.8,44.4C1039.7,419.9,1034.1,687.7,871,859.8L871,859.8z M718.4,546.9v-70.3
		c17.7,3,31.1,17.6,31.1,35.1C749.5,529.3,736.1,543.9,718.4,546.9z M349.1,476.5V547c-18.2-2.7-32.2-17.5-32.2-35.3
		C316.9,493.8,330.9,479,349.1,476.5z"/>
</g>
<g id="YOUTUBE">
	<path d="M800.1,134.6H274.6c-144,0-260.8,116.8-260.8,260.8v274.5c0,144,116.8,260.8,260.8,260.8h525.5
		c144,0,260.8-116.8,260.8-260.8V395.4C1060.9,251.3,944.1,134.6,800.1,134.6z M447.6,700l10.3-340.3l243.4,179L447.6,700z"/>
</g>
<g id="FACEBOOK">
	<path d="M578.3,1051.6V538.2h169.4L774.5,368H578.3v-85.3c0-44.4,14.6-86.8,78.3-86.8h127.3V26.2H603.2
		c-152,0-193.5,100.1-193.5,238.9V368H305.4v170.2h104.3v513.4L578.3,1051.6z"/>
</g>
<g id="SETADIR">
	<g id="VOLTAR">
		<polygon points="304.5,968.1 247.4,900.5 641.7,566.9 244.9,175.1 307,112.1 772.8,571.9 		"/>
	</g>
</g>
<g id="SETAESQ">
	<g id="VOLTAR-2">
		<polygon points="244.9,571.9 710.7,112.1 772.8,175.1 376,566.9 770.3,900.5 713.2,968.1 		"/>
	</g>
</g>
<g id="LUPA">
	<g id="Search">
		<path d="M1030.6,905.9L804.8,680c-1.2-1.2-2.6-2-3.9-3.2c46-69.7,70.4-151.3,70.4-234.8C871.3,206,680,14.7,444,14.7
			S16.7,206,16.7,442S208,869.3,444,869.3c83.5,0.1,165.2-24.3,234.9-70.3c1.1,1.3,2,2.7,3.2,3.9l225.7,225.7
			c34.1,33.7,89.1,33.4,122.9-0.8C1064,994.1,1064,939.7,1030.6,905.9L1030.6,905.9z M444,721.3c-154.2,0-279.2-125-279.2-279.2
			s125-279.2,279.2-279.2s279.2,125,279.2,279.2S598.2,721.3,444,721.3L444,721.3z"/>
	</g>
</g>
<g id="CADEADO">
	<path d="M852,443H393.7v-95.7c0-84.2,68.5-152.8,152.8-152.8S699.3,263,699.3,347.3c0,16.9,13.6,30.6,30.5,30.6H852
		c16.9,0,30.6-13.7,30.6-30.6C882.6,161.9,731.8,11,546.5,11S210.3,161.8,210.3,347.1v101c-36.6,13-61.1,47.6-61.1,86.4v122.2
		c0,219,178.2,397.2,397.2,397.2s397.3-178.1,397.3-397.1V534.6C943.6,484,902.6,443,852,443z M546.5,72.2
		c141.3,0,258.1,107.1,273.3,244.4h-61.6C743.3,213,654,133.3,546.5,133.3c-117.9,0-213.9,95.9-213.9,213.9v95.7h-61.1v-95.7
		C271.5,195.6,394.8,72.2,546.5,72.2z M882.6,656.9c0,185.3-150.8,336.1-336.1,336.1S210.3,842.2,210.3,656.9V534.6
		c0-16.9,13.6-30.5,30.5-30.5l0,0H852c16.9,0,30.5,13.6,30.6,30.5V656.9z"/>
	<path d="M546.5,565.2c-50.6,0-91.6,41-91.7,91.6c0,38.8,24.5,73.5,61.1,86.4v158c-0.3,16.9,13.1,30.8,30,31.1s30.8-13.1,31.1-30
		V743.2c47.7-16.8,72.8-69.1,56-116.8C620,589.7,585.4,565.1,546.5,565.2z M546.5,687.4c-16.9,0-30.6-13.6-30.6-30.5
		s13.6-30.6,30.5-30.6s30.6,13.6,30.6,30.5l0,0C577,673.6,563.4,687.3,546.5,687.4z"/>
</g>
<g id="GADGETS">
	<path d="M1003,513.2H883.6V201.6c0-47.8-38.7-86.5-86.5-86.5H277.7c-47.8,0.1-86.5,38.8-86.6,86.6v103.8h-95
		c-43.1,0-78.1,35-78.1,78.1v466.9c0,43.1,35,78.1,78.1,78.1h276.6c32.9-0.1,62.2-20.9,73.3-51.9h299.1c9.5,0,17.3-7.7,17.3-17.2
		l0,0l0,0v-34.7c0-28.6-23.1-51.9-51.8-51.9l0,0h-52v-69.2h138.5V875c0,29.7,24.1,53.7,53.7,53.7l0,0h152.3
		c29.6,0,53.7-24,53.7-53.6l0,0V566.9C1056.8,537.2,1032.7,513.1,1003,513.2z M416.2,850.5c0,24-19.5,43.5-43.5,43.5H96.2
		c-24,0-43.5-19.5-43.5-43.5V842h363.5V850.5z M416.2,807.5H52.7V426.6h363.5V807.5z M416.2,392.1H52.7v-8.4
		c0-24,19.5-43.5,43.5-43.5h276.5c24,0,43.5,19.5,43.5,43.5V392.1L416.2,392.1z M710.5,807.5c9.5-0.1,17.3,7.6,17.3,17.1
		c0,0,0,0,0,0.1l0,0V842h-277v-34.6L710.5,807.5z M450.8,772.8v-69.2h173.1v69.2H450.8z M797,669H450.8v-52H797V669z M797,566.9
		v15.6H450.8V383.6c-0.1-43.1-35-78-78.1-78.1H225.8V201.6c0-28.6,23.1-51.9,51.8-51.9l0,0H797c28.6,0,51.9,23.1,51.9,51.8l0,0
		v311.9C820,514.3,797.1,538,797,566.9L797,566.9z M1022,875c0,10.5-8.5,19-19,19H850.7c-10.5,0-19-8.5-19-19v-15.6h190.4L1022,875z
		 M1022,824.8H831.6V617H1022V824.8z M1022,582.4H831.6v-15.6c0-10.5,8.5-19,19-19l0,0h152.3c10.5,0,19,8.5,19,19l0,0l0,0
		L1022,582.4z"/>
</g>
<g id="CAMERA">
	<path d="M1021.9,259.7c-27.2-27.2-60-40.8-98.4-40.8H801.7l-27.7-74c-6.8-17.7-19.4-33-37.8-45.9s-37.1-19.3-56.3-19.3H401.5
		c-19.2,0-38,6.4-56.3,19.3s-30.9,28.2-37.8,46l-27.7,74H157.9c-38.4,0-71.2,13.6-98.4,40.8s-40.8,60-40.8,98.3v487.2
		c0,38.4,13.6,71.2,40.8,98.4s60,40.8,98.4,40.8h765.6c38.4,0,71.2-13.6,98.4-40.8c27.2-27.2,40.8-60,40.8-98.4V358
		C1062.7,319.6,1049.1,286.9,1021.9,259.7z M712.8,773.8c-47.7,47.7-105.1,71.5-172.1,71.5s-124.4-23.9-172.1-71.5
		c-47.7-47.7-71.5-105.1-71.5-172.1s23.9-124.4,71.5-172.1c47.7-47.7,105-71.5,172-71.5s124.4,23.8,172.2,71.5
		c47.7,47.7,71.5,105.1,71.5,172.2S760.5,726.2,712.8,773.8z"/>
	<path d="M540.7,445c-43.1,0-80,15.3-110.6,46s-46,67.6-46,110.7c0,43.1,15.3,80,46,110.7s67.5,45.9,110.6,45.9s80-15.3,110.7-45.9
		s46-67.5,46-110.7s-15.3-80-46-110.7S583.8,445,540.7,445z"/>
</g>
<g id="INSERIRCOD">
	<path d="M987.4,86.4H102.5c-33.4,0-60.4,27-60.5,60.4v792.9c0.1,33.4,27.1,60.4,60.5,60.4h884.9c33.4,0,60.4-27,60.4-60.4V146.8
		C1047.8,113.4,1020.7,86.4,987.4,86.4z M805.1,187.9c0-12.3,10-22.3,22.3-22.3h22.3c12.3,0,22.3,10,22.3,22.3l0,0v25.3
		c0,12.3-10,22.3-22.3,22.3h-22.3c-12.3,0-22.3-10-22.3-22.3l0,0V187.9z M701.4,187.9c0-12.3,10-22.3,22.3-22.3H746
		c12.3,0,22.3,10,22.3,22.3l0,0v25.3c0,12.3-10,22.3-22.3,22.3h-22.3c-12.3,0-22.3-10-22.3-22.3l0,0V187.9z M975.3,927.6H114.5v-625
		h860.7L975.3,927.6L975.3,927.6z M975.9,213.2c0,12.3-10,22.3-22.3,22.3h-22.3c-12.3,0-22.3-10-22.3-22.3l0,0v-25.3
		c0-12.3,10-22.3,22.3-22.3h22.3c12.3,0,22.3,10,22.3,22.3l0,0V213.2z"/>
	<path d="M257.9,638.6l161.8,75.3c15.7,7.3,34.4,0.5,41.8-15.3l0,0c1.9-4.1,2.9-8.6,2.9-13.2v-0.8c0-12.2-7.1-23.4-18.2-28.5
		L345,609l101.2-47c11.1-5.2,18.2-16.3,18.2-28.5v-0.8c0-17.3-14-31.4-31.4-31.4l0,0l0,0c-4.6,0-9.1,0.9-13.3,2.8l-161.8,75.3
		c-11.1,5.2-18.2,16.3-18.2,28.5v2.2C239.7,622.3,246.8,633.4,257.9,638.6z"/>
	<path d="M465.8,791.9c5.9,8.1,15.4,12.9,25.4,12.9h0.8c13.7,0,25.8-8.8,29.9-21.8l106.6-330.2c5.3-16.5-3.8-34.2-20.3-39.5l0,0
		h-0.1c-3.1-1-6.3-1.5-9.5-1.5h-0.8c-13.7-0.1-25.8,8.8-30,21.8L461.3,763.8C458.2,773.3,459.9,783.8,465.8,791.9z"/>
	<path d="M625.4,533.5c0,12.2,7.1,23.3,18.2,28.5l101.2,47l-101.2,47c-11.1,5.2-18.2,16.3-18.2,28.5v0.8c0,17.3,14.1,31.4,31.4,31.4
		l0,0h0.1c4.6,0,9.1-1,13.3-2.9L832,638.6c11.1-5.2,18.2-16.3,18.2-28.5v-2.3c0-12.2-7.1-23.3-18.2-28.5L670.1,504
		c-9.8-4.5-21.1-3.7-30.2,2c-9.1,5.7-14.6,15.8-14.5,26.5L625.4,533.5L625.4,533.5z"/>
</g>
<g id="ANEXAR">
	<path d="M830.9,73.9H518.5C485.9,14.8,411.6-6.6,352.6,26c-20.2,11.1-36.8,27.7-47.9,47.9h-56C181.3,74,126.6,128.6,126.5,196
		v735.2c0.1,67.5,54.7,122.1,122.2,122.2h582.2c67.4-0.1,122.1-54.8,122.2-122.2V196C952.9,128.6,898.3,74,830.9,73.9z M871.6,931.2
		c0,22.5-18.2,40.7-40.6,40.7l0,0H248.7c-22.5,0-40.7-18.2-40.7-40.6l0,0l0,0V196c0-22.5,18.2-40.7,40.7-40.7h203.6v291.2
		c0.2,22.5-17.9,40.9-40.5,41.1c-21.7,0.2-39.7-16.7-41-38.4v-1.4l0,0V251h-81.5v195.5c0,67.5,54.6,122.2,122.1,122.2
		s122.2-54.6,122.2-122.1v-0.1V155.4h297.1c22.5,0,40.7,18.2,40.7,40.6l0,0l0,0l0,0L871.6,931.2z M289.4,809h336v81.5h-336
		L289.4,809L289.4,809z M289.4,648.1h498.9v81.5H289.4V648.1z M613.2,489.3h175.1v81.4H613.2V489.3z M613.2,328.4h175.1v81.4H613.2
		V328.4z"/>
</g>
<g id="X">
	<path d="M1027.4,215.2L710.5,532l316.8,316.8c47.2,47.1,47.2,123.5,0.1,170.7c-47.1,47.2-123.5,47.2-170.7,0.1l-316.8-317
		l-316.9,317c-47.4,46.8-123.8,46.3-170.6-1.1C6,971.5,6,895.9,52.4,848.9L369.2,532L52.4,215.2C5.3,168.1,5.3,91.7,52.4,44.6
		s123.5-47.1,170.6,0l316.9,316.9L856.7,44.6c47.4-46.9,123.8-46.4,170.7,1C1073.8,92.5,1073.8,168.1,1027.4,215.2L1027.4,215.2z"/>
</g>
<g id="AMPLIAR">
	<polygon points="988.7,980.1 708.7,980.1 708.7,900.1 908.7,900.1 908.7,700.1 988.7,700.1 	"/>
	<polygon points="372.7,980.1 92.7,980.1 92.7,700.1 172.7,700.1 172.7,900.1 372.7,900.1 	"/>
	<polygon points="988.7,364.1 908.7,364.1 908.7,164.1 708.7,164.1 708.7,84.1 988.7,84.1 	"/>
	<polygon points="172.7,364.1 92.7,364.1 92.7,84.1 372.7,84.1 372.7,164.1 172.7,164.1 	"/>
</g>
<g id="PROXIMAAULA">
	<polygon points="168.5,1000.2 168,64 852,536.1 	"/>
	<rect x="852" y="69.3" width="118.7" height="925.6"/>
</g>
<g id="CHECK">
	<path d="M576.5,46.9C308.9,46.9,91.3,264.5,91.3,532s217.7,485.2,485.2,485.2s485.2-217.7,485.2-485.2S844,46.9,576.5,46.9z
		 M855.1,450L550.3,755c-26.8,26.8-70.2,26.8-97,0l0,0l0,0l0,0L297.9,599.6c-26.9-26.7-27-70.1-0.3-97c26.7-26.8,70-27,96.9-0.4
		l0.4,0.4l106.8,106.8L758.1,353c26.9-26.7,70.3-26.5,97,0.4C881.6,380.2,881.6,423.3,855.1,450z"/>
</g>
<g id="VOLTAR-3">
	<polygon points="244.9,571.9 710.7,112.1 772.8,175.1 376,566.9 770.3,900.5 713.2,968.1 	"/>
</g>
<g id="SIMBOLOB7">
	<g id="LOGO2">
		<path d="M824.2,532.7c-58.9,0-115.9,21-160.8,59.2L69.1,1039.3l734.2-12.5l50.3-1l0,0c122.8-14.4,218.2-119,218.2-245.8
			C1071.7,643.4,960.7,532.7,824.2,532.7z M824.2,979.1c-109.8,0-198.9-89.1-198.9-198.9s89.1-198.9,198.9-198.9
			s198.9,89.1,198.9,198.9C1022.8,890,934,979,824.2,979.1L824.2,979.1z"/>
		<circle cx="824.2" cy="780.2" r="168.8"/>
		<path d="M439.1,220.6c-38.4,27.2-65.7,67.3-77.1,112.9L182.9,898.9l471.2-347.5l32.3-23.8l0,0c73.2-66.2,86.7-178.2,28.2-260.5
			C651,178.2,527.8,157.5,439.1,220.6z M645.5,510.8c-71.2,50.7-170,34.2-220.8-37l-0.2-0.3c-50.8-71.3-34-170.2,37.3-221
			s170.2-34,221,37.3C733.4,361,716.8,460,645.5,510.8z"/>
		<circle cx="553.5" cy="381.5" r="134.6"/>
		<path d="M32.9,151.3C20.3,188,21.3,227.9,35.5,264l152.4,465.7l148.3-459.9l10.1-31.5l0,0c17.2-79.8-27.6-161.4-106.5-188.4
			C154.8,20.5,62.1,66,32.9,151.3z M311,246.4c-23.4,68.4-97.8,105-166.1,81.6s-105-97.8-81.6-166.1s97.8-105,166.1-81.6
			C298,103.4,334.4,177.8,311,246.4L311,246.4z"/>
		<circle cx="187.3" cy="204" r="111.2"/>
		<path d="M684.3,575.8"/>
	</g>
</g>
<g id="QTAULAS">
	<polygon points="801.1,854.9 17.1,854.9 17.1,312.6 540.4,312.6 540.4,361.9 66.2,361.9 66.2,805.8 752,805.8 752,450.6 
		801.1,450.6 	"/>
	<path d="M608.4,636.5V490.3h-92.5V86h547.9v389.2h-294L608.4,636.5z M565,441.2h92.6v76.7l91.8-91.8h265.2V135.2H565V441.2z"/>
	<path d="M676.4,231.5"/>
	<rect x="693.4" y="191.8" width="234.3" height="49.1"/>
	<rect x="689.7" y="312.7" width="234.3" height="49.1"/>
	<rect x="109.7" y="928.6" width="593.2" height="49.1"/>
	<path d="M319.4,611.2C258.9,611,209.9,562,209.8,501.6c0-60.4,49.2-109.5,109.6-109.5c60.5,0.1,109.5,49.1,109.6,109.6
		C429,562,379.8,611.2,319.4,611.2z M319.4,441.2c-33.4,0-60.5,27.1-60.5,60.5s27.1,60.5,60.5,60.5s60.5-27.1,60.5-60.5l0,0l0,0
		C379.8,468.3,352.8,441.2,319.4,441.2z"/>
	<path d="M460.7,832.8c-5-49.1-31.8-97.1-69.9-125.1c-21.7-15.9-57.3-33-103.5-23.4c-74.8,15.5-107.6,89.5-113,148.2l-48.9-4.5
		c9.1-99.3,68.8-174.6,152-191.8c49.8-10.3,100.4,1,142.5,31.9c49.8,36.5,83.3,96.2,89.7,159.7L460.7,832.8z"/>
</g>
<g id="RELOGIO">
	<path d="M540.2,1053c-287.5,0-521.5-233.9-521.5-521.5S252.7,10,540.2,10s521.5,234,521.5,521.5S827.8,1053,540.2,1053z
		 M540.2,106.9c-234.1,0-424.6,190.5-424.6,424.6s190.5,424.6,424.6,424.6s424.7-190.5,424.7-424.6S774.4,106.9,540.2,106.9
		L540.2,106.9z"/>
	<path d="M819.6,594.9H536.5c-22.6,0-41-18.4-41-41l0,0v-324c0-22.6,18.4-41,41-41s41,18.4,41,41V513h242.1
		c22.6-1.1,41.9,16.3,43,38.9s-16.3,41.9-38.9,43C822.3,595,821,595,819.6,594.9L819.6,594.9z"/>
</g>
<g id="SINO">
	<path d="M904.1,749.9c-17.7-53-26.8-108.5-26.7-164.4V357.6c0-85.1-33-164.7-93-224.1c-71.6-72.3-171-104.7-272.8-89.7
		C365.9,65.7,242.8,213.5,242.8,366.2v178.7c-0.1,80.6-18.9,160.2-54.9,232.3l-60,120h276.7c17.6,85.9,101.4,141.3,187.3,123.7
		c62.3-12.7,111-61.4,123.7-123.7h237.7L904.1,749.9z M560.1,960.6c-40.3-0.1-76.3-25.5-89.8-63.5h179.6
		C636.4,935.1,600.5,960.5,560.1,960.6z M230.7,833.7l14-27.9c40.4-81,61.5-170.3,61.6-260.9V366.2c0-123.1,98.4-242.1,214.9-259.6
		c81.2-12.1,160.9,14,218.7,71.7c47.9,47.6,74.3,111.4,74.3,179.3v227.9c0.1,62.7,10.1,124.9,29.8,184.4l21.3,63.8H230.7z"/>
</g>
<g id="EXPLORAR">
	<g id="EXPLORAR-2">
		<path d="M496,791.8c122.4,0,221.9-99.7,221.9-221.9S618.4,347.7,496,347.7s-221.9,99.7-221.9,221.9S373.6,791.8,496,791.8z
			 M422.1,742.3c9.6-12.1,24.3-19,39.7-19h141.9C550.6,760.8,481.8,768,422.1,742.3z M641,689.2H496.2c-9.4,0-17-7.6-17-17l0,0V638
			c0-9.4,7.6-17,17-17l0,0h180.7C669.6,645.9,657.4,669.1,641,689.2z M684,569.6c0,5.7-0.4,11.5-0.9,17H461.8
			c-28.3,0-51.2-22.9-51.2-51.1l0,0l0,0V402.6c26.4-13.6,55.7-20.7,85.4-20.7C599.7,381.8,684,466.1,684,569.6L684,569.6z
			 M376.4,424.9v110.8c0,42.4,31.3,77.4,71.9,84.1c-2.3,5.9-3.5,12.2-3.5,18.5v34.2c0,6.2,1.2,12.3,3.5,18.1
			c-22.8,3.6-43.2,16.4-56.3,35.5c-50.5-33.8-83.8-91.1-83.8-156.2C308.2,513.8,333.2,460.6,376.4,424.9L376.4,424.9z"/>
		<path d="M1059.7,193.9V91.5c-0.1-47.1-38.3-85.3-85.4-85.4H461.8c-47.1,0.1-85.3,38.3-85.4,85.4V194c0,40.6,28.6,75.6,68.4,83.6
			v6.6c-135.7,24.3-239.1,143-239.1,285.5c0,50.1,13.1,99.4,37.9,143L23.4,933c-30.6,29.7-31.3,78.7-1.5,109.2
			c29.7,30.6,78.7,31.3,109.2,1.5c0.6-0.6,1.1-1.1,1.7-1.7L353,821.8c7.5,4.4,15.4,8.2,23.4,11.9V877c0.1,47.1,38.3,85.3,85.5,85.4
			h512.5c47.1-0.1,85.3-38.3,85.4-85.4V774.5c0-42.4-31.3-77.4-71.9-84.1c2.3-5.9,3.5-12.2,3.5-18.5v-34.2c0-6.3-1.2-12.6-3.5-18.5
			c40.6-6.6,71.9-41.5,71.9-84.1V432.6c0-42.4-31.3-77.4-71.9-84.1c2.3-5.9,3.5-12.2,3.5-18.5v-34.2c0-6.3-1.2-12.6-3.5-18.5
			C1029.2,271.2,1059.9,235.7,1059.7,193.9L1059.7,193.9z M479,279.2h461.1c9.4,0,17,7.6,17,17l0,0l0,0v34.2c0,9.4-7.6,17-17,17
			H682.9C630.8,303.2,564.6,279,496.3,279c-5.7,0-11.5,0.4-17,0.9v-0.7L479,279.2L479,279.2z M496,313.4
			c141.2,0,256.1,114.9,256.1,256.1S637.2,825.7,496,825.7S239.9,710.8,239.9,569.6S354.8,313.4,496,313.4L496,313.4z M781.7,621
			h158.6c9.4,0,17,7.6,17,17l0,0l0,0v34.2c0,9.4-7.6,17-17,17H760.5C770.3,667.4,777.4,644.5,781.7,621L781.7,621z M108.8,1018
			c-17.1,16.7-44.5,16.3-61.2-0.8c-16.3-16.8-16.4-43.5-0.1-60.3l158.2-158.2L267,860L108.8,1018z M291,835.8l-61.3-61.4l32.9-32.9
			c17.3,23.4,37.9,44,61.3,61.3L291,835.8z M1025.5,774.4V877c0,28.3-22.9,51.2-51.1,51.2l0,0H461.8c-28.3,0-51.2-22.9-51.2-51.1
			l0,0l0,0V847c11.2,3.4,22.6,6,34.2,7.9V894H479v-34.9c5.7,0.4,11.3,0.9,17,0.9s11.5-0.4,17-0.9v35.1h34.2v-39.1
			c80.5-14.6,151.2-62.5,194.6-131.9h232.3C1002.4,723.3,1025.4,746.1,1025.5,774.4L1025.5,774.4z M1025.5,432.9v102.6
			c0,28.3-22.9,51.2-51.1,51.2l0,0H785.5c0.4-5.7,0.9-11.3,0.9-17c0-71.7-26.3-137.2-69.3-188h257.3
			C1002.6,381.8,1025.4,404.7,1025.5,432.9L1025.5,432.9z M1025.5,193.8c0,28.3-22.9,51.2-51.1,51.2l0,0H461.8
			c-28.3,0-51.2-22.9-51.2-51.1l0,0l0,0V91.5c0-28.2,22.9-51.2,51.1-51.2h512.6c28.3,0,51.2,22.9,51.2,51.1L1025.5,193.8
			L1025.5,193.8z"/>
		<path d="M444.8,416H479v136.6h-34.2V416z"/>
		<path d="M957.1,416h34.2v136.6h-34.2V416z"/>
		<path d="M564.4,552.6c28.3,0,51.2-22.9,51.2-51.1l0,0l0,0v-34.3c0-28.3-22.9-51.2-51.2-51.2s-51.2,22.9-51.2,51.2l0,0l0,0v34.2
			C513.2,529.6,536.1,552.5,564.4,552.6z M547.2,467.2c0-9.4,7.6-17,17-17s17,7.6,17,17v34.2c0,9.4-7.6,17-17,17s-17-7.6-17-17
			V467.2z"/>
		<path d="M871.7,416c-28.3,0-51.2,22.9-51.2,51.1l0,0l0,0v34.3c0,28.3,22.9,51.2,51.2,51.2s51.2-22.9,51.2-51.2v-34.2
			C923.1,439,900,416,871.7,416z M888.9,501.4c0,9.4-7.6,17-17,17s-17-7.6-17-17l0,0v-34.2c0-9.4,7.6-17,17-17s17,7.6,17,17V501.4z"
			/>
		<path d="M957.1,74.3h34.2v136.6h-34.2V74.3z"/>
		<path d="M888.9,74.3h34.2v136.6h-34.2V74.3z"/>
		<path d="M564.4,74.3H496c-28.3,0-51.2,22.9-51.2,51.2s22.9,51.2,51.2,51.2l0,0h68.4c28.3,0,51.2-22.9,51.2-51.2
			C615.6,97.2,592.7,74.3,564.4,74.3L564.4,74.3z M564.4,142.7H496c-9.4,0-17-7.6-17-17s7.6-17,17-17h68.4c9.4,0,17,7.6,17,17
			S573.8,142.7,564.4,142.7z"/>
		<path d="M871.7,757.6c-28.3,0-51.2,22.9-51.2,51.2s22.9,51.2,51.2,51.2h68.4c28.3,0,51.2-22.9,51.2-51.2s-22.9-51.2-51.2-51.2
			H871.7z M957.1,808.7c0,9.4-7.6,17-17,17h-68.4c-9.4,0-17-7.6-17-17s7.6-17,17-17h68.4C949.4,791.8,957,799.3,957.1,808.7z"/>
	</g>
</g>
<g id="GRUPO">
	<g id="GRUPO-2">
		<path d="M877.4,751.6H751.8c-25.9,0-51.4,6.7-74,19.4c-19.2,10.9-35.8,25.8-48.7,43.7c-8.6-1.5-17.2-2.2-25.9-2.2H477.7
			c-8.7,0-17.3,0.7-25.9,2.2c-12.8-17.9-29.5-32.9-48.7-43.7c-22.6-12.8-48.1-19.5-74-19.4H203.8c-83.3,0.2-150.8,67.7-151,151v85.3
			c0.1,8.9,7.4,16.1,16.3,16.1h257.4v44.8c0,9,7.3,16.3,16.3,16.3h395.5c9,0,16.3-7.3,16.3-16.3l0,0l0,0V1004H1012
			c9,0,16.3-7.3,16.3-16.3l0,0l0,0v-85.1C1027.7,819.5,960.5,752,877.4,751.6z M327.8,949v22.4H85v-68.8
			c0.1-65.4,53.2-118.5,118.6-118.6h125.5c20.3,0,40.2,5.2,57.9,15.2c11.8,6.8,22.5,15.5,31.5,25.7
			C368.1,846.9,333.5,894.3,327.8,949z M721.6,963.6v69H359.1v-94l0.7-2.6l1.1-4.1l0.9-2.6c16.1-48.6,61.5-81.5,112.7-81.8l3.3-1.7
			h125.5c59.6,0.2,109.9,44.5,117.7,103.6c-0.1,2.5,0.1,5,0.7,7.4C721.6,958.4,721.6,961,721.6,963.6L721.6,963.6z M995.9,971.4
			H754.2V924l-0.9-2.8v-5.7l-1.5-4.4c-14.7-38.8-44.5-69.9-82.5-86.4c6.7-10,14.9-18.9,24.4-26.3c17.7-10,37.6-15.2,57.9-15.2h125.5
			c65.5,0.1,118.5,53.2,118.6,118.6L995.9,971.4z"/>
		<circle cx="541.2" cy="217.9" r="18.3"/>
		<path d="M347.2,529.2c-44.7-44.6-117-44.6-161.7,0s-44.6,117,0,161.7s117,44.6,161.7,0c21.4-21.4,33.5-50.5,33.5-80.8
			C380.5,579.7,368.5,550.7,347.2,529.2z M324.1,667.6c-32,32.1-83.9,32.3-116.1,0.3c-32.1-32-32.3-83.9-0.3-116.1
			c32-32.1,83.9-32.3,116.1-0.3c15.5,15.4,24.2,36.4,24.2,58.3C348.3,631.5,339.6,652.4,324.1,667.6z"/>
		<circle cx="659.8" cy="217.9" r="18.3"/>
		<path d="M731.6,63.6c-54.7-42-122-64.4-191-63.5c-69-0.9-136.3,21.5-191,63.5c-50,40-81.2,95.7-81.2,157.5c0,31.3,8,62,23.1,89.4
			c14.4,25.9,33.8,48.8,57,67.2l-12.8,85.5c-1.3,8.8,4.8,16.9,13.5,18.3c3.6,0.6,7.3-0.1,10.4-2l87.5-51.1
			c13.8,4.1,27.9,7.3,42.2,9.6c17,2.6,34.1,3.9,51.3,3.9c69,0.9,136.3-21.5,191-63.5c50-40.2,80.9-95.7,80.9-157.5
			S781.6,103.7,731.6,63.6z M711.4,353.4c-49.1,37.4-109.3,57-171,55.9c-15.4,0-30.8-1.1-46.1-3.5c-15.2-2.2-30.2-5.7-44.8-10.4
			c-4.4-1.4-9.1-0.8-13.1,1.5l-64,37.6l9.4-61.6c0.9-5.9-1.6-11.9-6.5-15.4c-22.9-16.6-42-38-55.9-62.7
			c-12.4-22.6-18.9-48-18.9-73.8c0-51.6,26.3-98.3,68.8-132.3c49.1-37.4,109.3-57,171-55.9c61.6-1,121.8,18.7,171,55.9
			c42.4,33.5,68.8,80.7,68.8,132.3S754,319.3,711.4,353.4z"/>
		<path d="M814.7,495.5c-63.1-0.1-114.3,50.9-114.4,114s50.9,114.3,114,114.4c63.1,0.1,114.3-50.9,114.4-114v-0.2
			C928.9,546.9,877.8,495.7,814.7,495.5z M872.4,667.6c-32,47.8-96.7,60.7-144.6,28.6c-47.8-32-60.7-96.7-28.6-144.6
			c32-47.8,96.7-60.7,144.6-28.6c47.7,31.9,60.6,96.4,28.8,144.3L872.4,667.6z"/>
		<circle cx="422.4" cy="217.9" r="18.3"/>
		<path d="M621.1,589.9c-44.6-44.5-116.9-44.4-161.4,0.2c-44.6,44.6-44.4,116.8,0.2,161.4s116.8,44.4,161.4-0.2
			C665.8,706.7,665.8,634.4,621.1,589.9C621.2,589.9,621.2,589.9,621.1,589.9L621.1,589.9L621.1,589.9L621.1,589.9z M540.4,752.7
			c-45.3,0.1-82-36.5-82.1-81.8s36.5-82,81.8-82.1s82,36.5,82.1,81.8c0,21.8-8.6,42.8-24.1,58.2C582.8,744,562,752.6,540.4,752.7z"
			/>
	</g>
</g>
<g id="BLOG">
	<g id="BLOG-2">
		<path d="M371,667c0-9.3-7.5-16.8-16.8-16.8s-16.8,7.5-16.8,16.8v16.8h-50.5c-9.3,0-16.8,7.5-16.8,16.8s7.5,16.8,16.8,16.8h50.5
			v16.8c0,9.3,7.5,16.8,16.8,16.8s16.8-7.5,16.8-16.8v-16.8h403.6c9.3,0,16.8-7.5,16.8-16.8s-7.5-16.8-16.8-16.8l0,0H371V667z"/>
		<path d="M479.9,451c-5,3.1-8,8.5-8,14.3v134.5c-0.1,5.9,2.9,11.3,8,14.3c4.9,3.1,11.2,3.5,16.4,0.8l134.6-67.3
			c5.7-2.9,9.3-8.7,9.2-15.1c0-6.4-3.6-12.2-9.2-15.1L496.3,450C491,447.6,484.9,447.9,479.9,451z M505.6,492.5l80.1,40.1
			l-80.1,40.1V492.5z"/>
		<path d="M253.3,364.4h-50.4c-9.3,0-16.8,7.5-16.8,16.7l0,0l0,0v403.7c0,9.3,7.5,16.8,16.7,16.8l0,0h672.8
			c9.3,0,16.8-7.5,16.8-16.7l0,0l0,0V448.5c0-9.3-7.5-16.8-16.8-16.8s-16.8,7.5-16.8,16.8V768H219.7V398h33.6
			c9.3,0,16.9-7.5,16.9-16.9S262.6,364.3,253.3,364.4L253.3,364.4z"/>
		<path d="M623.3,398c9.3,0,16.8-7.5,16.8-16.8s-7.5-16.8-16.8-16.8H505.6c-9.3,0-16.8,7.5-16.8,16.8s7.5,16.8,16.8,16.8H623.3z"/>
		<path d="M942.8,431.7c-9.3,0-16.8,7.5-16.8,16.7l0,0l0,0v370.1c0,9.3-7.5,16.8-16.7,16.8l0,0H169.2c-9.3,0-16.8-7.5-16.8-16.7l0,0
			l0,0V381.2c0-9.3-7.5-16.8-16.8-16.8s-16.8,7.5-16.8,16.8v437.2c-0.1,27.8,22.4,50.3,50.1,50.4l0,0h235.8V936H303.8
			c-27.9,0-50.5,22.6-50.5,50.5s22.6,50.5,50.5,50.5h470.9c9.3,0,16.8-7.5,16.8-16.8s-7.5-16.8-16.8-16.8H303.8
			c-9.3,0-16.8-7.5-16.8-16.8s7.5-16.8,16.8-16.8h470.9c9.3,0,16.8-7.5,16.8-16.8s-7.5-16.8-16.8-16.8h-101v-67.3h235.4
			c27.8,0.1,50.4-22.4,50.5-50.2l0,0l0,0V448.6C959.6,439.3,952.1,431.7,942.8,431.7z M640.1,936.2H438.3v-67.3h201.8V936.2z"/>
		<path d="M959.6,28H757.8c-46.4-0.1-84,37.5-84.1,83.9l0,0l0,0v185.2H502.4c1.9-5.4,2.9-11.1,3.2-16.8V78.5
			c0.1-27.8-22.3-50.3-50.1-50.4l0,0H85.1C57.3,28,34.8,50.4,34.7,78.2l0,0v0.1l0,0v202c-0.1,27.8,22.4,50.4,50.2,50.5l0,0H280
			l129.7,129.7c4.8,4.8,12,6.3,18.3,3.6c6.3-2.7,10.3-8.8,10.3-15.6V330.8h237.1c8.1,39.1,42.5,67.2,82.4,67.3h201.8
			c46.4,0.1,84-37.5,84.1-83.9l0,0l0,0v-202c0.1-46.4-37.5-84-83.9-84.1l0,0L959.6,28L959.6,28z M438.3,297.2h-16.8
			c-9.3,0-16.8,7.5-16.8,16.7l0,0l0,0V408L298.9,302.2c-3.2-3.2-7.5-4.9-12-4.8H85.1c-9.3,0-16.8-7.5-16.8-16.7l0,0l0,0V78.6
			c0-9.3,7.5-16.8,16.7-16.8l0,0h370.1c9.3,0,16.8,7.5,16.8,16.7l0,0l0,0v201.9c0,9.3-7.5,16.8-16.7,16.8l0,0L438.3,297.2
			L438.3,297.2z M1010.1,314c0.1,27.8-22.4,50.4-50.2,50.5l0,0h-202c-27.8,0.1-50.3-22.4-50.4-50.1l0,0l0,0v-0.1l0,0V112.2
			c-0.1-27.8,22.4-50.4,50.2-50.5l0,0h202c27.8-0.1,50.3,22.4,50.4,50.1l0,0l0,0v0.1l0,0V314L1010.1,314z"/>
		<path d="M926,196.3c-9.2,0-16.7,7.5-16.8,16.8c0.1,27.9-22.5,50.5-50.4,50.6s-50.5-22.5-50.6-50.4s22.5-50.5,50.4-50.6h0.1
			c9.3,0,16.8-7.5,16.8-16.8S868,129,858.7,129c-46.4,0-84.1,37.7-84,84.2c0,46.4,37.7,84.1,84.1,84c46.4,0,84-37.7,84-84.1l0,0
			C942.8,203.8,935.3,196.3,926,196.3z"/>
		<path d="M371,95.4H202.9c-9.3,0-16.8,7.5-16.8,16.8s7.5,16.8,16.8,16.8h168.2c9.3,0,16.8-7.6,16.8-16.8S380.3,95.3,371,95.4z"/>
		<path d="M135.6,196.3h134.5c9.3,0,16.8-7.5,16.8-16.8s-7.5-16.8-16.8-16.8l0,0H135.6c-9.3,0-16.8,7.5-16.8,16.8
			S126.3,196.3,135.6,196.3L135.6,196.3z"/>
		<path d="M371,229.9H219.7c-9.3,0-16.8,7.5-16.8,16.8s7.5,16.8,16.8,16.8h151.4c9.3,0,16.8-7.6,16.8-16.9S380.3,229.8,371,229.9
			L371,229.9z"/>
		<path d="M152.4,229.9h-16.8c-9.3,0-16.8,7.5-16.8,16.8s7.5,16.8,16.8,16.8h16.8c9.3,0,16.8-7.5,16.8-16.8S161.7,229.9,152.4,229.9
			L152.4,229.9z"/>
		<path d="M371,162.6h-33.6c-9.3,0-16.8,7.5-16.8,16.8s7.5,16.8,16.8,16.8H371c9.3,0,16.8-7.5,16.8-16.8S380.3,162.6,371,162.6z"/>
	</g>
</g>
<g id="ESTRELA">
	<path d="M1002.2,455.2c-16.2-11.9-36.5-26.8-39-36.5c1-18.8,6.4-37.1,15.7-53.5c14.2-32.7,28.9-66.6,12.6-94.7S938,237.8,902.3,234
		c-18.5-0.1-36.8-4.5-53.4-12.7c-8.3-16.6-12.6-35-12.7-53.5c-4-35.7-8.2-72.7-36.5-89.2s-62.3-2.1-94.9,12.4
		c-16.4,9.3-34.8,14.7-53.6,15.7c-9.9-2.6-24.7-22.8-36.5-39C594,39.8,570.7,8.1,537,8.1s-57,31.7-77.6,59.6
		c-12,16.2-26.8,36.5-36.5,39c-18.8-1.1-37.1-6.5-53.6-15.7c-32.9-14.5-66.7-28.9-94.8-12.6c-28.1,16.3-32.8,53.5-36.8,89.5
		c-0.1,18.5-4.5,36.8-12.7,53.4c-16.6,8.1-34.7,12.4-53.2,12.5c-35.8,4-72.8,8.2-89.3,36.5s-2,62.2,12.4,94.9
		c9.3,16.5,14.7,34.8,15.7,53.7c-2.6,9.9-22.8,24.7-39,36.5C43.7,475.8,12,499.1,12,532.8s31.7,57.1,59.7,77.6
		c16.2,11.9,36.5,26.8,39,36.5c-1,18.8-6.4,37.1-15.7,53.5c-14.3,32.8-29,66.6-12.7,94.8s53.5,32.7,89.2,36.5
		c18.5,0.1,36.8,4.5,53.4,12.7c8.3,16.6,12.6,35,12.7,53.5c4,35.7,8.2,72.7,36.5,89.2s62,1.6,94.7-12.6c16.6-9.2,35-14.5,54-15.5
		c9.9,2.6,24.7,22.8,36.5,39c20.6,27.9,43.9,59.6,77.6,59.6s57-31.7,77.6-59.6c12-16.2,26.8-36.5,36.5-39
		c18.8,1.1,37.2,6.4,53.6,15.7c32.7,14.2,66.6,28.8,94.7,12.6c28.1-16.2,32.8-53.5,36.8-89.3c0.1-18.5,4.5-36.8,12.7-53.4
		c16.6-8.2,34.8-12.5,53.3-12.6c35.8-4,72.8-8.2,89.3-36.5s1.6-62-12.6-94.7c-9.3-16.5-14.6-35-15.5-54c2.6-9.9,22.8-24.7,39-36.5
		c27.9-20.6,59.7-44,59.7-77.6S1030.2,475.8,1002.2,455.2z"/>
	<g>
		<path class="st0" d="M400,646.9c-7.2,0-13.9-3.4-18.3-9.1L285.9,510v114.1c0,12.6-10.2,22.8-22.8,22.8
			c-12.6,0-22.8-10.2-22.8-22.8V441.5c0-12.6,10.2-22.8,22.8-22.8c7.2,0,13.9,3.4,18.3,9.1l95.9,127.8V441.5
			c0-12.6,10.2-22.8,22.8-22.8s22.8,10.2,22.8,22.8v182.6c0,9.8-6.3,18.5-15.6,21.6C404.9,646.5,402.4,646.9,400,646.9z"/>
		<path class="st0" d="M582.6,646.9h-91.3c-12.6,0-22.8-10.2-22.8-22.8V441.5c0-12.6,10.2-22.8,22.8-22.8h91.3
			c12.6,0,22.8,10.2,22.8,22.8c0,12.6-10.2,22.8-22.8,22.8h-68.5v136.9h68.5c12.6,0,22.8,10.2,22.8,22.8S595.2,646.9,582.6,646.9z"
			/>
		<path class="st0" d="M582.6,555.6h-91.3c-12.6,0-22.8-10.2-22.8-22.8s10.2-22.8,22.8-22.8h91.3c12.6,0,22.8,10.2,22.8,22.8
			S595.2,555.6,582.6,555.6z"/>
		<path class="st0" d="M810.8,646.9c-9.8,0-18.6-6.3-21.7-15.6l-24-72l-24,72c-2.9,9.8-12.3,16.3-22.5,15.6
			c-10.1-0.4-18.8-7.4-21.3-17.3L651.7,447c-3.1-12.2,4.4-24.6,16.6-27.7c12.2-3.1,24.6,4.4,27.7,16.6l26.6,106.5l20.9-62.6
			c5.4-12,19.5-17.3,31.5-11.8c5.3,2.4,9.5,6.6,11.8,11.8l20.9,62.6L834.3,436c3.1-12.2,15.4-19.7,27.7-16.6
			c12.2,3.1,19.7,15.4,16.6,27.7L833,629.6c-2.5,9.8-11.1,16.9-21.3,17.3L810.8,646.9z"/>
	</g>
</g>
<g id="SETAC">
	<g id="SETAESQ">
		<g id="VOLTAR-2">
			<polygon points="505.1,268.8 965,734.7 902,796.8 510.1,400 176.6,794.3 109,737.2 			"/>
		</g>
	</g>
</g>
<g id="SETAB">
	<g id="SETAESQ_2_">
		<g id="VOLTAR-2_2_">
			<polygon points="568.7,796.8 108.9,331 171.9,268.9 563.7,665.7 897.3,271.4 964.9,328.5 			"/>
		</g>
	</g>
</g>
<g id="PROJETOS">
	<g>
		<path d="M589,265H273.1c-9.9,0-17.9,8-17.9,17.9s8,17.9,17.9,17.9H589c9.9,0,17.9-8,17.9-17.9C606.9,273.1,598.9,265,589,265z"/>
		<path d="M589,321.9H273.1c-9.9,0-17.9,8-17.9,17.9s8,17.9,17.9,17.9H589c9.9,0,17.9-8,17.9-17.9S598.9,321.9,589,321.9z"/>
		<path d="M500.2,389.3H268.3c-7.3,0-13.2,8-13.2,17.9s5.9,17.9,13.2,17.9h231.9c7.3,0,13.2-8,13.2-17.9
			C513.4,397.3,507.5,389.3,500.2,389.3z"/>
		<path d="M471.8,453.8h-205c-6.4,0-11.6,8-11.6,17.9s5.2,17.9,11.6,17.9h205c6.4,0,11.6-8,11.6-17.9S478.2,453.8,471.8,453.8z"/>
		<path d="M585.2,511.9h-205c-6.4,0-11.6,8-11.6,17.9s5.2,17.9,11.6,17.9h205c6.4,0,11.6-8,11.6-17.9S591.6,511.9,585.2,511.9z"/>
		<path d="M506.2,570H380.5c-3.9,0-7.1,8-7.1,17.9s3.2,17.9,7.1,17.9h125.8c3.9,0,7.1-8,7.1-17.9S510.2,570,506.2,570z"/>
		<path d="M506.2,737.8h61.4c9.9,0,17.9-8,17.9-17.9s-8-17.9-17.9-17.9h-61.4c-9.9,0-17.9,8-17.9,17.9S496.3,737.8,506.2,737.8z"/>
		<path d="M1020.2,117.3H53.7c-23.6,0-42.8,19.2-42.8,42.8v594.2c0,5,0.9,9.8,2.5,14.3c5.9,16.6,21.7,28.5,40.2,28.5h327.6v48.8
			c0.8,48.9-21,97.6-30.8,117h-47.2c-9.9,0-17.9,8-17.9,18c0,9.9,8,17.9,17.9,17.9h467.4c9.9,0,17.9-8,17.9-17.9s-8-18-17.9-18
			h-47.2c-9.9-19.4-31.6-67.8-30.8-117v-48.8h327.6c18.4,0,34.1-11.7,40.1-28.1c1.7-4.6,2.7-9.5,2.7-14.7V160.1
			C1063,136.5,1043.8,117.3,1020.2,117.3z M390.2,962.9c12.1-27.1,27.7-71.4,26.9-117.4v-48.4h239.7v48.4
			c-0.7,46,14.9,90.3,26.9,117.4H390.2z M1027.1,754.3c0,0.8-0.2,1.5-0.4,2.2c-0.9,2.7-3.5,4.7-6.5,4.7H53.7c-3,0-5.6-2-6.5-4.7
			c-0.2-0.7-0.4-1.4-0.4-2.2v-75.9h980.3V754.3z M125.8,642.6V231.1c0-2.6,1.8-4.9,3.8-4.9h814.6c2,0,3.8,2.3,3.8,4.9v411.5H125.8z
			 M1027.1,642.6h-43.2V231.1c0-22.5-17.8-40.7-39.6-40.7H129.6c-21.9,0-39.6,18.3-39.6,40.7v411.5H46.8V160.1
			c0-3.8,3.1-6.9,6.9-6.9h966.5c3.8,0,6.9,3.1,6.9,6.9V642.6z"/>
		<path d="M191.8,300.9H162c-9.9,0-17.9-8-17.9-17.9l0,0c0-9.9,8-17.9,17.9-17.9h29.7c9.9,0,17.9,8,17.9,17.9l0,0
			C209.7,292.9,201.7,300.9,191.8,300.9z"/>
		<path d="M191.8,357.8H162c-9.9,0-17.9-8-17.9-17.9l0,0c0-9.9,8-17.9,17.9-17.9h29.7c9.9,0,17.9,8,17.9,17.9l0,0
			C209.7,349.7,201.7,357.8,191.8,357.8z"/>
		<path d="M191.8,425.2H162c-9.9,0-17.9-8-17.9-17.9l0,0c0-9.9,8-17.9,17.9-17.9h29.7c9.9,0,17.9,8,17.9,17.9l0,0
			C209.7,417.1,201.7,425.2,191.8,425.2z"/>
		<path d="M188.8,489.7H159c-9.9,0-17.9-8-17.9-17.9l0,0c0-9.9,8-17.9,17.9-17.9h29.7c9.9,0,17.9,8,17.9,17.9l0,0
			C206.7,481.6,198.7,489.7,188.8,489.7z"/>
		<path d="M188.8,547.8H159c-9.9,0-17.9-8-17.9-17.9l0,0c0-9.9,8-17.9,17.9-17.9h29.7c9.9,0,17.9,8,17.9,17.9l0,0
			C206.7,539.7,198.7,547.8,188.8,547.8z"/>
		<path d="M188.8,605.9H159c-9.9,0-17.9-8-17.9-17.9l0,0c0-9.9,8-17.9,17.9-17.9h29.7c9.9,0,17.9,8,17.9,17.9l0,0
			C206.7,597.8,198.7,605.9,188.8,605.9z"/>
		<g>
			<path d="M872.9,619.5H700.4c-17,0-30.9-13.9-30.9-30.9V277.8c0-17,13.9-30.9,30.9-30.9h172.5c17,0,30.9,13.9,30.9,30.9v310.8
				C903.8,605.7,889.9,619.5,872.9,619.5z M701.5,587.5h170.3V278.9H701.5V587.5z"/>
		</g>
		<circle cx="786.6" cy="565.7" r="19.1"/>
		<g>
			<g>
				<g>
					<g>
						<path d="M762.4,447.1c-1.3,1.6-3.3,2.6-5.3,2.6c-1.6,0-3.1-0.6-4.3-1.5l-30.1-24.3c-1.6-1.3-2.5-3.3-2.5-5.3
							c0-2.1,0.9-4,2.5-5.3l30.1-24.3c1.4-1.2,3.2-1.7,5-1.5s3.5,1.1,4.6,2.5c2.4,2.9,1.9,7.3-1,9.6l-23.5,19l23.5,19
							C764.3,439.8,764.8,444.1,762.4,447.1z"/>
					</g>
				</g>
			</g>
			<g>
				<g>
					<g>
						<path d="M853.1,421c0,2.1-0.9,4-2.5,5.3l-30.1,24.3c-1.2,1-2.8,1.5-4.3,1.5c-2.1,0-4-0.9-5.3-2.6c-1.1-1.4-1.7-3.2-1.5-5
							s1.1-3.5,2.5-4.6l23.5-19l-23.5-19c-1.4-1.1-2.3-2.8-2.5-4.6c-0.2-1.8,0.3-3.6,1.5-5c2.4-2.9,6.7-3.4,9.6-1l30.1,24.3
							C852.2,416.9,853.1,418.9,853.1,421z"/>
					</g>
				</g>
			</g>
			<g>
				<g>
					<g>
						<path d="M809.7,381.7l-32.9,78.8c-1.1,2.6-3.6,4.2-6.3,4.2c-0.9,0-1.8-0.2-2.6-0.5c-1.7-0.7-3-2-3.7-3.7s-0.7-3.6,0-5.2
							l32.9-78.8c0.7-1.7,2-3,3.7-3.7s3.6-0.7,5.3,0s3,2,3.7,3.7C810.5,378.1,810.5,380,809.7,381.7z"/>
					</g>
				</g>
			</g>
		</g>
	</g>
</g>
<g id="CALENDARIO">
	<g>
		<g>
			<g>
				<rect x="495.9" y="471.9" width="80.2" height="80.2"/>
				<path d="M928.8,91.1h-48.1V11h-80.2v80.2H271.4V11h-80.2v80.2h-48.1c-66.3,0-120.2,53.9-120.2,120.2v705.4
					c0,66.3,53.9,120.2,120.2,120.2h266.5h6h139.8c-27.7-22.9-51.9-49.9-71.5-80.2h-68.3h-6H143.2c-22.1,0-40.1-18-40.1-40.1v-529
					h865.8v80.2v4v0.2c30.2,19.6,57.3,43.8,80.2,71.5v-71.7v-4V211.4C1049,145.1,995.1,91.1,928.8,91.1z M968.8,307.6H103.1v-96.2
					c0-22.1,18-40.1,40.1-40.1h48.1v80.2h80.2v-80.2h529.1v80.2h80.2v-80.2h48.1c22.1,0,40.1,18,40.1,40.1v96.2L968.8,307.6
					L968.8,307.6z"/>
				<path d="M778.5,495.9c-149.2,0-270.6,121.4-270.6,270.6s121.4,270.6,270.6,270.6S1049,915.7,1049,766.5S927.6,495.9,778.5,495.9
					z M778.5,956.9c-105,0-190.4-85.4-190.4-190.4s85.4-190.4,190.4-190.4s190.4,85.4,190.4,190.4S883.4,956.9,778.5,956.9z"/>
				<polygon points="816.5,632.2 736.4,632.2 736.4,806.6 884.7,806.6 884.7,726.4 816.5,726.4 				"/>
				<rect x="335.6" y="632.2" width="80.2" height="80.2"/>
				<rect x="175.2" y="632.2" width="80.2" height="80.2"/>
				<rect x="175.2" y="471.9" width="80.2" height="80.2"/>
				<rect x="175.2" y="792.5" width="80.2" height="80.2"/>
				<rect x="335.6" y="471.9" width="80.2" height="80.2"/>
				<rect x="335.6" y="792.5" width="80.2" height="80.2"/>
			</g>
		</g>
	</g>
</g>
<g id="BIBLIOTECA">
	<g>
		<path d="M1004.7,906.4h-26.9c-18.6-44.3-18.7-87.5,0-131.6h26.9c30,0,54.4-24.4,54.4-54.4s-24.4-54.4-54.4-54.4H896.5
			c13.8-15.7,22.1-36.3,22.1-58.8V436.9c0-49.3-40.1-89.4-89.4-89.4h-44c3.7-7.4,5.8-15.8,5.8-24.7c0-30.5-24.8-55.4-55.3-55.4
			h-15.1c-13.5-33.4-13.5-66,0-99.2h15.2c30.5,0,55.3-24.8,55.3-55.4c0-30.5-24.8-55.3-55.3-55.3h-516
			c-88.4,0-160.3,71.9-160.3,160.2c0,42.7,16.7,82.9,47,113.3c6,6,12.5,11.5,19.2,16.4H114c-30,0-54.4,24.4-54.4,54.4
			S84,456.2,114,456.2h26.9c18.6,44.1,18.6,87.3,0,131.6H114c-30,0-54.4,24.4-54.4,54.4c0,11.5,3.6,22.1,9.7,30.9
			c-32,13.6-54.4,45.4-54.4,82.3v170.4c0,49.3,40.1,89.4,89.3,89.4h900.5c30,0,54.4-24.4,54.4-54.4
			C1059.1,930.8,1034.7,906.4,1004.7,906.4L1004.7,906.4z M1004.7,696.6c13.1,0,23.8,10.7,23.8,23.8s-10.7,23.8-23.8,23.8H728.6
			c-8.4,0-15.3,6.8-15.3,15.3s6.8,15.3,15.3,15.3H945c-6,16.8-9.6,33.6-11,50.5c0,0-6.1,30.3,11,81.1H128c-2.4,0-4.4-2-4.4-4.4
			V779.2c0-2.4,2-4.4,4.4-4.4h151.5V825c-1,15,6.4,21,10.9,23.2c4.6,2.2,14,4.4,25.5-6.2c0.1-0.1,0.2-0.1,0.2-0.2L359,801l42.8,40.8
			c0.1,0.1,0.2,0.1,0.2,0.2c6.8,6.2,12.8,8,17.5,8c3.4,0,6.1-0.9,8.1-1.9c4.5-2.2,11.8-8.2,10.8-23.2v-50.2h214.9
			c8.4,0,15.3-6.8,15.3-15.3s-6.8-15.3-15.3-15.3H438.4v-47.6L1004.7,696.6L1004.7,696.6z M184.7,506.8
			c-1.4-16.9-5.1-33.7-11.1-50.5h631.9c2.4,0,4.4,2,4.4,4.4v122.8c0,2.4-2,4.4-4.4,4.4h-367v-50.5h107.1c8.4,0,15.3-6.8,15.3-15.3
			c0-8.4-6.8-15.3-15.3-15.3L184.7,506.8L184.7,506.8z M279.5,587.9H173.6c6-16.8,9.7-33.7,11.1-50.5h94.8V587.9z M407.9,537.4
			l-0.1,267.9l-38.3-36.5c-5.9-5.6-15.2-5.6-21.1,0l-38.2,36.5l-0.1-267.9H407.9L407.9,537.4z M90.2,217.8
			c0-71.5,58.2-129.6,129.7-129.6h516c13.6,0,24.7,11.1,24.7,24.7c0,13.7-11.1,24.8-24.7,24.8h-282c-8.4,0-15.3,6.8-15.3,15.3
			c0,8.4,6.8,15.3,15.3,15.3h234.2c-10.8,32.9-10.8,66.1,0,99.2H219.8c-13.2,0-25.6-5.2-35-14.5c-9.4-9.5-14.6-21.9-14.6-35.1
			c0-27.3,22.3-49.5,49.6-49.5h158.7c8.4,0,15.3-6.8,15.3-15.3c0-8.4-6.8-15.3-15.3-15.3H219.8c-44.2,0-80.2,35.9-80.2,80.1
			c0,21.3,8.3,41.4,23.6,56.7c15.2,15.2,35.3,23.5,56.6,23.5h516c13.6,0,24.7,11.1,24.7,24.8c0,13.6-11.1,24.7-24.7,24.7h-516
			c-34.5,0-67.1-13.5-91.6-38C103.7,284.9,90.2,252.4,90.2,217.8L90.2,217.8z M114,425.7c-13.1,0-23.8-10.7-23.8-23.8
			c0-13.1,10.7-23.8,23.8-23.8h715.3c32.4,0,58.8,26.4,58.8,58.8v170.4c0,32.4-26.4,58.8-58.8,58.8H438.4v-47.6h367.1
			c19.3,0,35-15.7,35-35V460.7c0-19.3-15.7-35-35-35H114L114,425.7z M114,618.5h165.6v47.6H114c-13.1,0-23.8-10.7-23.8-23.8
			C90.2,629.1,100.8,618.5,114,618.5L114,618.5z M1004.7,984.6H104.2c-32.4,0-58.7-26.4-58.7-58.8V755.4c0-32.4,26.3-58.8,58.7-58.8
			h175.4v47.6H128c-19.3,0-35,15.7-35,35V902c0,19.3,15.7,35,35,35h876.7c13.1,0,23.8,10.7,23.8,23.8
			C1028.5,973.9,1017.8,984.6,1004.7,984.6L1004.7,984.6z"/>
	</g>
</g>
<g id="MODULO">
	<g>
		<g>
			<g>
				<path d="M600,490c3,5.8,8.9,9.2,15,9.2c2.6,0,5.2-0.6,7.6-1.8c1-0.5,99.9-50.7,148.6-66.1c8.8-2.8,13.7-12.2,10.9-21.1
					c-2.8-8.8-12.2-13.8-21.1-11c-51.4,16.2-149.6,66.1-153.8,68.3C599.1,471.6,595.8,481.8,600,490z"/>
				<path d="M615,297.6c2.6,0,5.2-0.6,7.6-1.8c1-0.5,99.9-50.7,148.6-66.1c8.8-2.8,13.7-12.2,10.9-21.1c-2.8-8.8-12.2-13.8-21.1-11
					c-51.4,16.2-149.6,66.1-153.8,68.3c-8.3,4.2-11.6,14.3-7.4,22.6C602.9,294.2,608.9,297.6,615,297.6z"/>
				<path d="M1018.1,264c-9.3,0-16.8,7.5-16.8,16.8V936c0,27.8-22.6,50.4-50.4,50.4H547.8v-38.7c24.5-8.6,88.3-28.5,151.2-28.5
					c146.3,0,245.7,32.4,246.7,32.7c5.1,1.7,10.7,0.8,15.1-2.3c4.4-3.2,7-8.2,7-13.6V196.8c0-7.9-5.5-14.7-13.2-16.4
					c0,0-13.2-2.9-35.7-7.1c-9.1-1.7-17.9,4.4-19.6,13.5c-1.7,9.1,4.4,17.9,13.5,19.6c8.6,1.6,15.8,3,21.3,4.1v703.2
					c-38.1-10-122.6-28.1-235.2-28.1c-73.2,0-145.1,24-167.3,32.2c-19.8-8.7-79.5-32.2-151.9-32.2c-115.7,0-211,19.1-252,28.8V209.8
					c33.5-8.2,132.6-29.8,252-29.8c61.3,0,113.8,19.1,134.4,27.7v661.1c0,6,3.3,11.6,8.5,14.6c5.3,3,11.7,2.9,16.9-0.2
					c1.7-1,168.1-100.4,315.9-149.7c6.9-2.3,11.5-8.7,11.5-15.9V28.8c0-5.5-2.7-10.7-7.2-13.8s-10.3-3.9-15.5-1.9
					C709.8,63.5,573.8,148.1,572.4,149c-7.9,4.9-10.3,15.3-5.3,23.2c4.9,7.9,15.3,10.3,23.2,5.3c1.2-0.8,119.6-74.4,243.1-124.1
					v652.2c-114.7,39.8-234.4,104.9-285.6,134V196.8c0-6.4-3.6-12.2-9.3-15c-2.9-1.4-71.7-35.4-158.7-35.4
					c-151.8,0-268.5,32.8-273.4,34.3c-7.2,2-12.2,8.7-12.2,16.1V936c0,5.3,2.5,10.2,6.7,13.4c3,2.2,6.5,3.4,10.1,3.4
					c1.5,0,3.1-0.2,4.6-0.7c1.2-0.3,117.3-32.9,264.2-32.9c61.4,0,113.9,19.1,134.4,27.7v39.5H110.9c-27.8,0-50.4-22.6-50.4-50.4
					V280.8c0-9.3-7.5-16.8-16.8-16.8S27,271.5,27,280.8V936c0,46.3,37.7,84,84,84h840c46.3,0,84-37.7,84-84V280.8
					C1034.9,271.5,1027.4,264,1018.1,264z"/>
				<path d="M600,389.2c3,5.8,8.9,9.2,15,9.2c2.6,0,5.2-0.6,7.6-1.8c1-0.5,99.9-50.7,148.6-66.1c8.8-2.8,13.7-12.2,10.9-21.1
					c-2.8-8.8-12.2-13.8-21.1-11c-51.4,16.2-149.6,66.1-153.8,68.3C599.1,370.8,595.8,381,600,389.2z"/>
				<path d="M600,590.8c3,5.8,8.9,9.2,15,9.2c2.6,0,5.2-0.6,7.6-1.8c1-0.5,99.9-50.7,148.6-66.1c8.8-2.8,13.7-12.2,10.9-21.1
					c-2.8-8.8-12.2-13.8-21.1-11c-51.4,16.2-149.6,66.1-153.8,68.3C599.1,572.4,595.8,582.6,600,590.8z"/>
				<path d="M434,323.8c-103.7-24.3-221.6,6.7-226.6,8c-9,2.4-14.3,11.6-11.9,20.6c2,7.5,8.8,12.4,16.2,12.4c1.4,0,2.9-0.2,4.4-0.6
					c1.1-0.3,114.6-30.2,210.2-7.7c9,2.1,18.1-3.5,20.2-12.5C448.6,334.9,443,325.9,434,323.8z"/>
				<path d="M434,424.6c-103.7-24.3-221.6,6.7-226.6,8c-9,2.4-14.3,11.6-11.9,20.6c2,7.5,8.8,12.4,16.2,12.4c1.4,0,2.9-0.2,4.4-0.6
					c1.1-0.3,114.6-30.2,210.2-7.7c9,2.1,18.1-3.5,20.2-12.5C448.6,435.7,443,426.7,434,424.6z"/>
				<path d="M600,691.6c3,5.8,8.9,9.2,15,9.2c2.6,0,5.2-0.6,7.6-1.8c1-0.5,99.9-50.7,148.6-66.1c8.8-2.8,13.7-12.2,10.9-21.1
					c-2.8-8.8-12.2-13.8-21.1-11C709.7,617,611.5,666.9,607.3,669C599.1,673.2,595.8,683.4,600,691.6z"/>
				<path d="M434,525.4c-103.7-24.3-221.6,6.7-226.6,8c-9,2.4-14.3,11.6-11.9,20.6c2,7.5,8.8,12.5,16.2,12.5c1.4,0,2.9-0.2,4.4-0.6
					c1.1-0.3,114.6-30.2,210.2-7.7c9,2.1,18.1-3.5,20.2-12.5C448.6,536.5,443,527.5,434,525.4z"/>
				<path d="M434,727c-103.7-24.3-221.6,6.7-226.6,8c-9,2.4-14.3,11.6-11.9,20.6c2,7.5,8.8,12.5,16.2,12.5c1.4,0,2.9-0.2,4.4-0.6
					c1.1-0.3,114.6-30.2,210.2-7.7c9,2.1,18.1-3.5,20.2-12.5C448.6,738.1,443,729.1,434,727z"/>
				<path d="M434,626.2c-103.7-24.3-221.6,6.7-226.6,8c-9,2.4-14.3,11.6-11.9,20.6c2,7.5,8.8,12.5,16.2,12.5c1.4,0,2.9-0.2,4.4-0.6
					c1.1-0.3,114.6-30.2,210.2-7.7c9,2.1,18.1-3.5,20.2-12.5C448.6,637.3,443,628.3,434,626.2z"/>
			</g>
		</g>
	</g>
</g>
<g id="CAMINHO">
	<path d="M443.9,46.7v348.5H154.8c-5.3,0-10.3,2.1-14,5.8L22,519.8c-7.7,7.7-7.7,20.3,0,28l118.8,118.8c3.7,3.7,8.8,5.8,14,5.8
		h289.1v92.5c-67.1,9.6-118.8,67.5-118.8,137.2c0,1.9,0.1,3.8,0.2,5.6c-31.6,22-52.6,56-58.2,93.5H166.7c-10.9,0-19.8,8.9-19.8,19.8
		s8.9,19.8,19.8,19.8H434c10.9,0,19.8-8.9,19.8-19.8s-8.9-19.8-19.8-19.8H307.4c5.8-27.5,23.4-51.8,48.8-66.1
		c8.8-4.9,10.9-13.1,9.5-22.9c-7.7-54.8,37.6-109,98-109c35.9,0,69.1,19.9,86.6,52.1c9.5,17.4,27.1,7.3,32.2,7.3
		c21.8,0,39.6,17.8,39.6,39.6c0,10.9,8.9,19.8,19.8,19.8c47.8,0,87.8,34.1,97,79.2H612.3c-10.9,0-19.8,8.9-19.8,19.8
		c0,10.9,8.9,19.8,19.8,19.8h267.3c10.9,0,19.8-8.9,19.8-19.8s-8.9-19.8-19.8-19.8H779.2c-8.8-61.4-58-109.9-119.6-117.7
		c-6.9-28.3-29-50.7-57.2-58c0-64.2,0-330.9,0-390.6h289.1c5.3,0,10.3-2.1,14-5.8l118.8-118.8c7.7-7.7,7.7-20.3,0-28l-118.8-119
		c-3.7-3.7-8.8-5.8-14-5.8H602.4V46.7c0-10.9-8.9-19.8-19.8-19.8H463.7C452.8,26.8,443.9,35.7,443.9,46.7L443.9,46.7z M64,533.8
		l99-99h399.7v198H163L64,533.8z M483.5,765v-92.6h79.2v133.4C541.6,783.9,513.8,769.4,483.5,765z M982.3,296.2l-99,99
		c-4.3,0-354.2,0-399.7,0v-198h399.7L982.3,296.2z M562.8,66.5v91.1h-79.2V66.5H562.8z"/>
	<circle cx="523.1" cy="1020.9" r="19.8"/>
</g>
<g id="PROJETOSB">
	<g>
		<g>
			<g>
				<path d="M1019.6,299.2L1019.6,299.2L1019.6,299.2l-65.3-9.4c-9.2-1.3-15.6-9.8-14.3-19c0.6-4.4,3-8.4,6.5-11.1l52.8-39.6
					c7.4-5.6,8.9-16.1,3.4-23.5L942.3,116c-5.6-7.4-16.1-8.9-23.5-3.4L866,152.3c-7.4,5.6-17.9,4.2-23.5-3.2
					c-2.7-3.6-3.9-8.1-3.2-12.6l9.3-65.3c1.3-9.2-5.1-17.7-14.2-19l0,0L734.7,38c-9.2-1.3-17.7,5.1-19,14.2l0,0l-9.3,65.3
					c-1.3,9.2-9.8,15.6-19,14.3c-4.4-0.6-8.4-3-11.1-6.5l-39.6-52.8c-5.6-7.4-16.1-8.9-23.5-3.4L562.7,107
					c-22.8-2.4-45.8-2.4-68.7,0c-149.4,17-266.6,136.2-281.2,286c-0.5,4.8-0.6,9.5-0.9,14.2h-5c-8,0-14.8,5.6-16.4,13.4l-11.6,55.2
					l-46.5-32.1c-6.7-4.6-15.7-3.8-21.4,1.9L60.7,496c-5.7,5.7-6.5,14.7-1.9,21.4l31.9,46.4l-55.2,11.6c-7.7,1.7-13.2,8.5-13.2,16.4
					V659c0,7.9,5.6,14.8,13.3,16.4L90.7,687l-31.9,46.4c-4.6,6.7-3.8,15.7,1.9,21.4l50.4,50.4c5.7,5.7,14.7,6.5,21.4,1.9l46.4-32
					l11.6,55.2c1.6,7.8,8.5,13.4,16.4,13.4h67.2c7.9,0,14.8-5.6,16.4-13.3l11.6-55.2l46.4,31.9c6.7,4.6,15.7,3.8,21.4-1.9L396,779
					v47.8c0.1,23.9,12.9,45.9,33.6,57.8V978c0,37.1,30.1,67.2,67.2,67.2H564c37.1,0,67.2-30.1,67.2-67.2v-93.3
					c20.7-11.9,33.5-33.9,33.6-57.8v-66.5c0.5-28,15.1-53.8,38.8-68.5c13.9-9,27.1-19.1,39.5-30.2l-22.4-25
					c-11.1,9.9-22.9,19-35.4,27c-33.3,20.9-53.7,57.4-54.2,96.7v66.5c0,18.5-15,33.6-33.6,33.6H463.2c-18.5,0-33.6-15-33.6-33.6V759
					c-0.4-38.6-20.5-74.4-53.3-94.8c-133-83.5-173.1-259.2-89.5-392.3c51.9-82.6,142.4-132.8,239.9-133.2c-0.2,0.6-0.5,1.2-0.7,1.8
					c-0.6,4.4,0.5,8.9,3.2,12.4l39.6,52.8c4.2,5.4,4.6,12.8,1,18.6c-3.4,5.9-10.1,9-16.8,8.1l-65.3-9.3c-9.2-1.3-17.7,5.1-19,14.2
					l0,0L454.4,337c-1.3,9.2,5.1,17.7,14.2,19l0,0l65.3,9.3c9.2,1.3,15.6,9.8,14.3,19c-0.6,4.4-3,8.4-6.5,11.1L489,435.1
					c-7.4,5.6-8.9,16.1-3.4,23.5l60.4,80.6c5.6,7.4,16.1,8.9,23.5,3.4l52.8-39.6c7.4-5.6,17.9-4,23.5,3.4c2.7,3.6,3.8,8,3.2,12.4
					l-9.3,65.3c-1.3,9.2,5.1,17.7,14.2,19l0,0l99.7,14.3c0.8,0.1,1.6,0.2,2.4,0.2c8.4,0,15.5-6.1,16.6-14.4l9.3-65.3
					c1.3-9.2,9.8-15.6,19-14.3c4.4,0.6,8.4,3,11.1,6.5l39.6,52.8c5.6,7.4,16.1,8.9,23.5,3.4l80.6-60.4c7.4-5.6,8.9-16.1,3.4-23.5
					l-39.6-52.8c-4.2-5.4-4.6-12.8-1-18.6c3.4-5.9,10.1-9.1,16.8-8.1l65.3,9.3c9.2,1.3,17.7-5.1,19-14.2l0,0l14.2-99.7
					C1035.2,309,1028.8,300.5,1019.6,299.2z M463.2,894h134.3v33.6H463.2V894z M463.2,961.2h134.3V978c0,18.5-15,33.6-33.6,33.6
					h-67.2c-18.5,0-33.6-15-33.6-33.6v-16.8H463.2z M329.5,671.7c9.2,7.5,18.7,14.5,28.7,20.9c15.9,10,27.8,25.2,33.8,43l-36,35.9
					l-34.9-24c-15.3-10.5-36.2-6.7-46.7,8.6c-2.5,3.7-4.3,7.8-5.2,12.1l-8.8,41.9h-39.9l-8.8-41.9c-3.8-18.1-21.6-29.8-39.8-25.9
					c-4.4,0.9-8.5,2.7-12.1,5.2l-34.9,24L94.3,741l24-34.9c10.5-15.3,6.7-36.2-8.6-46.7c-3.7-2.5-7.8-4.3-12.2-5.2l-41.9-8.8v-39.9
					l41.9-8.8c18.1-3.8,29.7-21.7,25.9-39.8c-0.9-4.3-2.7-8.4-5.1-12l-24-35l30.6-30.5l34.9,24c15.3,10.5,36.2,6.7,46.7-8.6
					c2.5-3.7,4.3-7.8,5.2-12.1l2.9-14c2.7,19.3,7.1,38.4,13.3,56.9c-55.2,6.6-94.7,56.7-88.1,112c6.6,55.2,56.7,94.7,112,88.1
					C285.1,721.7,314.2,701.5,329.5,671.7z M303.4,648c-12.5,34.8-50.9,52.9-85.8,40.4c-34.8-12.5-52.9-50.9-40.4-85.8
					c9.6-26.7,34.9-44.4,63.2-44.4c0.2,0,0.4,0,0.6,0C256.6,591.6,277.6,621.9,303.4,648z M988.7,396.5l-48.7-7
					c-27.5-3.9-53,15.2-57,42.7c-1.9,13.2,1.6,26.7,9.6,37.3l29.5,39.3l-53.7,40.3l-29.5-39.3c-16.7-22.3-48.3-26.8-70.5-10.1
					c-10.7,8-17.8,19.9-19.6,33.2l-6.8,48.8l-66.5-9.5l7-48.7c3.9-27.5-15.2-53.1-42.7-57c-13.2-1.9-26.7,1.5-37.4,9.6l-39.3,29.5
					l-40.3-53.7l39.3-29.5c22.3-16.7,26.8-48.3,10.1-70.5c-8-10.7-19.9-17.8-33.2-19.6l-48.7-7l9.5-66.5l48.7,7
					c27.5,3.9,53.1-15.2,57-42.7c1.9-13.2-1.5-26.7-9.6-37.4l-29.6-39.4L620,106l29.5,39.3c16.7,22.3,48.3,26.8,70.5,10.1
					c10.7-8,17.8-19.9,19.6-33.2l7-48.7l66.5,9.5l-7,48.7c-3.9,27.5,15.2,53,42.7,57c13.2,1.9,26.7-1.6,37.3-9.6l39.3-29.5
					l40.3,53.7l-39.3,29.5c-22.3,16.7-26.8,48.3-10.1,70.5c8,10.7,19.9,17.8,33.2,19.6l48.7,7L988.7,396.5z"/>
			</g>
		</g>
		<g>
			<g>
				<path d="M744.2,193.3c-74.2,0-134.3,60.1-134.3,134.3S670,462,744.2,462s134.3-60.1,134.3-134.3
					C878.4,253.5,818.3,193.4,744.2,193.3z M744.2,428.4c-55.6,0-100.7-45.1-100.7-100.7S688.6,227,744.2,227s100.7,45,100.7,100.6
					C844.8,383.3,799.8,428.3,744.2,428.4z"/>
			</g>
		</g>
		<g>
			<g>
				<rect x="513.5" y="776.5" width="33.6" height="50.4"/>
			</g>
		</g>
		<g>
			<g>
				<path d="M456.9,611.6c-103.6-40.5-154.8-157.3-114.3-261c15.7-40.2,43.8-74.2,80.3-97.2L405,225
					c-109.8,69.2-142.8,214.3-73.6,324.2c26.8,42.5,66.5,75.4,113.4,93.7c41.5,15.9,68.8,55.7,68.8,100.1h33.6
					C547.2,684.7,511.3,632.5,456.9,611.6z"/>
			</g>
		</g>
		<g>
			<g>
				<rect x="849.3" y="659" width="117.5" height="33.6"/>
			</g>
		</g>
		<g>
			<g>
				<rect x="866.1" y="736.1" transform="matrix(0.6401 -0.7683 0.7683 0.6401 -298.1505 966.8632)" width="33.6" height="131.1"/>
			</g>
		</g>
		<g>
			<g>
				<rect x="748.6" y="793.3" width="33.6" height="117.5"/>
			</g>
		</g>
		<g>
			<g>
				<rect x="41.4" y="306.4" transform="matrix(0.9701 -0.2425 0.2425 0.9701 -75.0746 36.4681)" width="138.4" height="33.6"/>
			</g>
		</g>
		<g>
			<g>
				<rect x="119" y="108.3" transform="matrix(0.5812 -0.8137 0.8137 0.5812 -90.0262 186.0938)" width="33.6" height="144.4"/>
			</g>
		</g>
		<g>
			<g>
				<rect x="227.8" y="35.6" transform="matrix(0.9688 -0.2477 0.2477 0.9688 -18.3609 63.8565)" width="33.6" height="138.6"/>
			</g>
		</g>
	</g>
</g>
<g id="EXCLUIR">
	<g>
		<g>
			<path d="M238.4,337.6v106.1v479.7c0,74.4,60.3,134.7,134.7,134.7h327.5c74.4,0,134.7-60.3,134.7-134.7V337.6H238.4L238.4,337.6z
				 M429.7,884c0,17.2-13.9,31.1-31.1,31.1s-31.1-13.9-31.1-31.1V511.7c0-17.2,13.9-31.1,31.1-31.1s31.1,13.9,31.1,31.1V884z
				 M568,884c0,17.2-13.9,31.1-31.1,31.1c-17.2,0-31.1-13.9-31.1-31.1V511.7c0-17.2,13.9-31.1,31.1-31.1s31.1,13.9,31.1,31.1V884z
				 M706.4,884c0,17.2-13.9,31.1-31.1,31.1c-17.2,0-31.1-13.9-31.1-31.1V511.7c0-17.2,13.9-31.1,31.1-31.1
				c17.2,0,31.1,13.9,31.1,31.1V884z"/>
		</g>
		<g>
			<path d="M524.5,314.3h-12.2H362.2h-12 M854.3,283.2v-78.8c0-40.1-32.5-72.6-72.6-72.6h-81V90.3c0-45.7-37.2-82.9-82.9-82.9H456.1
				c-45.7,0-82.9,37.2-82.9,82.9v41.5h-81c-40.1,0-72.6,32.5-72.6,72.6v78.8c0,17.2,13.9,31.1,31.1,31.1h111.5h150.1h12.2h298.6
				C840.3,314.3,854.3,300.3,854.3,283.2z M435.4,131.8V90.3c0-11.4,9.3-20.7,20.7-20.7h161.7c11.4,0,20.7,9.3,20.7,20.7v41.5H435.4
				z"/>
		</g>
	</g>
</g>
<g id="EXCLUIR2">
	<g>
		<g>
			<g>
				<g>
					<g>
						<g>
							<g>
								<path class="st1" d="M254.4,353.9v100.5v454.1c0,70.4,57.1,127.5,127.5,127.5h310c70.4,0,127.5-57.1,127.5-127.5V353.9
									H254.4L254.4,353.9z M435.4,871.2c0,16.2-13.2,29.4-29.4,29.4c-16.3,0-29.4-13.2-29.4-29.4V518.7
									c0-16.3,13.2-29.4,29.4-29.4c16.2,0,29.4,13.2,29.4,29.4V871.2z M566.4,871.2c0,16.2-13.2,29.4-29.4,29.4
									c-16.3,0-29.4-13.2-29.4-29.4V518.7c0-16.3,13.2-29.4,29.4-29.4s29.4,13.2,29.4,29.4V871.2z M697.3,871.2
									c0,16.2-13.2,29.4-29.4,29.4c-16.3,0-29.4-13.2-29.4-29.4V518.7c0-16.3,13.2-29.4,29.4-29.4s29.4,13.2,29.4,29.4V871.2z"/>
							</g>
						</g>
					</g>
				</g>
			</g>
		</g>
		<g>
			<g>
				<g>
					<g>
						<g>
							<path class="st1" d="M525.8,307.1h-11H380h-10.8 M821.9,279.2v-70.7c0-36-29.2-65.2-65.2-65.2H684v-37.2
								c0-41.1-33.4-74.5-74.5-74.5H464.3c-41.1,0-74.5,33.4-74.5,74.5v37.2h-72.7c-36,0-65.2,29.2-65.2,65.2v70.7
								c0,15.4,12.5,27.9,27.9,27.9h100.1h134.8h11h268.2C809.4,307.2,821.9,294.7,821.9,279.2z M445.7,143.3v-37.2
								c0-10.3,8.3-18.6,18.6-18.6h145.2c10.3,0,18.6,8.3,18.6,18.6v37.2H445.7z"/>
						</g>
					</g>
				</g>
			</g>
		</g>
	</g>
</g>
<path id="DESAFIO" d="M197,787.8V630.5c0-35.2-28.5-63.7-63.7-63.7H112v-68h21.2c35.2,0,63.7-28.5,63.7-63.7V277.8
	c0-70.4,57.1-127.5,127.5-127.5H367v85h-42.5c-23.5,0-42.5,19-42.5,42.5V452c0,36.7-23.5,69.3-58.4,80.7
	c34.9,11.5,58.4,44,58.4,80.7v174.2c0,23.5,19,42.5,42.5,42.5H367v85h-42.5C254.1,915.2,197,858.2,197,787.8z M876.9,630.5v157.2
	c0,70.4-57.1,127.5-127.5,127.5h-42.5v-85h42.5c23.5,0,42.5-19,42.5-42.5V613.5c0-36.7,23.5-69.3,58.4-80.7
	c-34.9-11.5-58.4-44-58.4-80.7V277.8c0-23.5-19-42.5-42.5-42.5h-42.5v-85h42.5c70.4,0,127.5,57.1,127.5,127.5V435
	c0,35.2,28.5,63.7,63.7,63.7h21.2v68h-21.2C905.4,566.8,876.9,595.3,876.9,630.5z"/>
<path id="EMPREGO" d="M339,295.3V176.5c0-21.9,17.7-39.6,39.6-39.6h316.7c21.9,0,39.6,17.7,39.6,39.6v118.8h158.4
	c21.9,0,39.6,17.7,39.6,39.6v554.3c0,21.9-17.7,39.6-39.6,39.6H180.6c-21.9,0-39.6-17.7-39.6-39.6V334.8c0-21.9,17.7-39.6,39.6-39.6
	H339V295.3z M418.2,612h-198v237.5h633.5V612h-198v118.8H418.2V612z M853.7,374.4H220.2v158.4h198v-79.2h237.5v79.2h198V374.4z
	 M497.4,532.8v118.8h79.2V532.8H497.4z M418.2,216.1v79.2h237.5v-79.2L418.2,216.1L418.2,216.1z"/>
<g id="HOME">
	<path d="M816.7,899.1H257.2c-22.1,0-40-17.9-40-40V499.5H97.4L510,124.4c15.2-13.9,38.5-13.9,53.8,0l412.6,375.1H856.6v359.6
		C856.6,881.2,838.7,899.1,816.7,899.1z M297.2,819.2h479.5V425.9L537,208L297.2,425.9V819.2z"/>
</g>
<g id="MENTORIA">
	<g>
		<g>
			<circle cx="390.9" cy="532.9" r="43.1"/>
			<circle cx="537.2" cy="532.9" r="43.1"/>
			<circle cx="683.1" cy="532.9" r="43.1"/>
		</g>
		<g>
			<path d="M643.9,997.5l-48.1-19.3C497.4,938.9,394.2,895,307.9,830C258.6,793,220,752.1,193,708.6c-31.7-51-48.5-107.3-49.9-167.1
				c0-1.4-0.1-2.7-0.1-4c0-1.5,0-3,0-4.5c0-1.4,0-2.7,0-4.1c0.5-43.1,9.4-84.8,26.4-124.1c16.4-37.9,39.7-72,69.2-101.1
				c29.5-29.2,63.8-52.1,102-68.1c28.7-12,58.7-19.8,89.5-23.1V68.2l48.1,19.3c98.4,39.3,201.6,83.2,287.9,148.2
				c49.2,37.1,87.9,78,114.9,121.4c31.7,51,48.5,107.3,49.9,167.1c0,1.3,0.1,2.7,0.1,4c0,1.6,0,3.2,0,4.8c0,1.3,0,2.7,0,4
				c-0.5,43-9.4,84.7-26.4,124c-16.4,37.9-39.7,72-69.2,101.1c-29.5,29.2-63.8,52.1-102,68.1c-28.7,12-58.7,19.8-89.5,23.1
				L643.9,997.5L643.9,997.5z M465.2,280.7c-137.3,0-250.4,111.7-252,248.9c0,1.1,0,2.2,0,3.3s0,2.3,0,3.4v0.2c0,1.1,0,2.2,0.1,3.3
				c2.2,89.8,46.9,166.4,136.8,234.2C416,823.7,495,860.8,573.7,893.5V785h35.1c137.3,0,250.4-111.7,252-248.9v-0.2c0-1,0-1.9,0-2.9
				c0-1.2,0-2.3,0-3.5v-0.3c0-1.1,0-2.2-0.1-3.3c-2.2-89.8-46.9-166.4-136.8-234.2C658,242,579,204.9,500.3,172.2v108.6L465.2,280.7
				L465.2,280.7z"/>
		</g>
	</g>
</g>
<g id="CURSOS">
	<path d="M862,660.9l48.3,29c9.5,5.7,12.6,18.1,6.9,27.6c-1.7,2.8-4.1,5.2-6.9,6.9L557.7,936c-12.7,7.7-28.7,7.7-41.4,0L163.6,724.4
		c-9.5-5.7-12.6-18.1-6.9-27.6c1.7-2.8,4.1-5.2,6.9-6.9l48.3-29l325,195C537,856,862,660.9,862,660.9z M862,471.9l48.3,29
		c9.5,5.7,12.6,18.1,6.9,27.6c-1.7,2.8-4.1,5.2-6.9,6.9L537,759.5l-373.4-224c-9.5-5.7-12.6-18.1-6.9-27.6c1.7-2.8,4.1-5.2,6.9-6.9
		l48.3-29l325,195L862,471.9z M557.6,102.4L910.3,314c9.5,5.7,12.6,18.1,6.9,27.6c-1.7,2.8-4.1,5.2-6.9,6.9L537,572.5l-373.4-224
		c-9.5-5.7-12.6-18.1-6.9-27.6c1.7-2.8,4.1-5.2,6.9-6.9l352.7-211.6C529,94.7,544.9,94.7,557.6,102.4L557.6,102.4z M537,183.7
		L291.1,331.2L537,478.7l245.8-147.5L537,183.7z"/>
</g>
<g id="ANOTACOES">
	<path d="M842.4,902.6H231.5c-21.1,0-38.2-17.1-38.2-38.2V177.2c0-21.1,17.1-38.2,38.2-38.2h610.9c21.1,0,38.2,17.1,38.2,38.2v687.3
		C880.6,885.5,863.5,902.6,842.4,902.6z M804.2,826.3V215.4H269.7v610.9L804.2,826.3L804.2,826.3z M384.2,329.9h305.5v76.4H384.2
		V329.9z M384.2,482.6h305.5V559H384.2V482.6z M384.2,635.4h190.9v76.4H384.2V635.4z"/>
</g>
<g id="BOTAOMENU">
	<path d="M189.6,224h694.8v77.2H189.6V224z M189.6,494.2h694.8v77.2H189.6V494.2z M189.6,764.4h694.8v77.2H189.6V764.4z"/>
</g>
<g id="SUPORTE">
	<path d="M919.6,707.7c0,107.8-75.1,201.1-180.4,224.2l-24.4-73.2c45.3-7.5,84.8-34.8,107.8-74.5h-94.3c-42.3,0-76.5-34.3-76.5-76.5
		V554.6c0-42.3,34.3-76.5,76.5-76.5h112.4c-21.2-167.8-174.3-286.6-342.1-265.4C359.9,230.1,250.7,339.4,233.2,478h112.4
		c42.3,0,76.5,34.3,76.5,76.5v153.1c0,42.3-34.3,76.5-76.5,76.5H230.8c-42.3,0-76.5-34.3-76.5-76.5V516.3
		c0-211.3,171.3-382.7,382.7-382.7S919.6,305,919.6,516.3V707.7z M843.1,707.6v-153H728.3v153.1L843.1,707.6L843.1,707.6z
		 M230.8,554.6v153.1h114.8V554.6H230.8z"/>
</g>
<g id="DISCUSSAO">
	<path d="M873.5,196.2c20.6,0,37.4,16.8,37.4,37.4v523.6c0,20.6-16.8,37.4-37.4,37.4h-544L163,925.5V233.6
		c0-20.6,16.8-37.4,37.4-37.4L873.5,196.2L873.5,196.2z M836.2,271H237.8v500.6l65.9-51.8h532.5V271z M481.4,361.2l16.7,25.7
		c-62.4,33.8-61.3,88-61.3,99.6c5.8-0.7,11.9-0.9,18-0.3c33.7,3.1,60.3,30.9,60.3,65.3c0,36.1-29.3,65.5-65.5,65.5
		c-20.1,0-39.3-9.2-51.4-22.1c-19.3-20.4-29.6-43.4-29.6-80.6C368.7,448.8,414.6,390.2,481.4,361.2z M668.4,361.2l16.7,25.7
		c-62.4,33.8-61.3,88-61.3,99.6c5.8-0.7,11.9-0.9,18-0.3c33.7,3.1,60.3,30.9,60.3,65.3c0,36.1-29.3,65.5-65.4,65.5
		c-20.1,0-39.3-9.2-51.4-22.1c-19.3-20.4-29.6-43.4-29.6-80.6C555.7,448.8,601.6,390.2,668.4,361.2z"/>
</g>
</svg>
